<svg width="28" height="23" viewBox="0 0 28 23" fill="none" xmlns="http://www.w3.org/2000/svg">
<path d="M5.04468 12.7672C5.57151 11.6452 6.29151 10.6334 6.9268 9.57361C8.6612 6.67891 10.4617 3.82297 12.1641 0.909911C12.8562 -0.274285 14.3675 -0.323244 15.0524 0.884412C16.5419 3.51494 18.1555 6.07713 19.7246 8.66379C20.0707 9.23396 20.5004 9.75721 20.7297 10.3927C20.4446 10.5916 20.1254 10.715 19.7959 10.8282C18.454 11.2923 17.108 11.736 15.8064 12.3163C15.0369 12.6591 14.3127 13.1415 13.446 13.2557C13.2973 12.6305 12.849 12.1623 12.5587 11.6105C11.7819 10.1346 10.1973 10.2764 9.48966 11.5779C8.83371 12.7845 8.06206 13.9299 7.34206 15.1029C6.8173 14.8326 6.84106 14.2604 6.62826 13.8218C5.9971 12.5285 6.41133 12.5479 5.04468 12.7672Z" fill="#0C2556"/>
<path d="M13.446 13.2577C14.3127 13.1435 15.0379 12.661 15.8064 12.3183C17.108 11.7379 18.454 11.2943 19.7959 10.8302C20.1254 10.7159 20.4435 10.5935 20.7297 10.3946C21.3299 10.2059 21.93 10.0183 22.5292 9.82855C22.7699 9.75205 23.0085 9.74593 23.2461 9.83773C23.6035 9.97644 23.9216 10.1733 23.9557 10.5864C23.9929 11.0393 23.6923 11.3402 23.3483 11.5605C23.0446 11.7553 22.7027 11.9001 22.3608 12.0225C22.1769 12.0878 22.1118 12.2082 22.0447 12.353C21.709 12.1184 21.396 12.2316 21.0623 12.3826C19.1978 13.2281 17.4396 14.2491 15.7486 15.3936C15.4397 15.6026 15.1608 15.7475 15.2507 16.1687C14.6484 16.0841 14.3602 16.6043 13.9863 16.8817C12.6692 17.8619 11.3728 18.8768 10.1518 19.9692C9.2004 20.8198 8.23765 21.6491 7.20568 22.3998C6.09521 23.2066 4.98784 22.9047 4.02199 22.2346C3.78853 22.0724 3.5561 21.9153 3.30819 21.7766C3.31645 21.643 3.39599 21.5093 3.28339 21.3757C2.66876 20.6526 2.18738 19.8427 1.74216 19.0114C1.63886 18.8176 1.47565 18.787 1.28454 18.7911C1.34756 18.3576 1.09344 18.0241 0.924027 17.662C0.345549 16.4268 0.446783 16.0729 1.55725 15.2783C2.72144 14.444 3.94038 13.6841 5.04362 12.7671C6.41028 12.5468 5.99604 12.5274 6.62617 13.8238C6.83897 14.2624 6.81521 14.8346 7.33997 15.1049C7.50939 16.2575 8.43702 16.6532 9.34915 15.9596C10.3842 15.1722 11.4554 14.4378 12.5669 13.7595C12.8572 13.5841 13.2694 13.6178 13.446 13.2577Z" fill="#ADC959"/>
<path d="M15.2516 16.1688C15.1617 15.7475 15.4406 15.6027 15.7495 15.3936C17.4405 14.2492 19.1997 13.2272 21.0632 12.3826C21.3959 12.2317 21.7099 12.1184 22.0456 12.353C22.6654 13.6515 23.4825 14.8367 24.2128 16.0719C25.1012 17.5743 26.0268 19.0543 26.9307 20.5486C27.0567 20.7566 27.1713 20.977 27.2488 21.2065C27.6186 22.2917 27.1765 22.9088 26.0206 22.9241C24.2955 22.9476 22.5693 22.9537 20.8442 22.9863C19.9228 23.0037 19.2565 22.662 18.7731 21.8582C17.6244 19.9478 16.4282 18.0639 15.2516 16.1688Z" fill="#0C2556"/>
<path d="M1.28525 18.7923C1.47532 18.7882 1.63957 18.8188 1.74287 19.0126C2.18809 19.8439 2.66946 20.6528 3.2841 21.377C3.39669 21.5096 3.31715 21.6432 3.30889 21.7778C2.98143 22.2623 2.68496 22.7866 2.0538 22.9477C1.39784 23.115 0.658219 22.8712 0.292538 22.3612C-0.139255 21.7584 -0.0493842 21.1301 0.279109 20.5243C0.596239 19.9367 0.948491 19.3686 1.28525 18.7923Z" fill="#0C2556"/>
</svg>
