<svg width="70" height="70" viewBox="0 0 70 70" fill="none" xmlns="http://www.w3.org/2000/svg">
<path opacity="0.103585" d="M35 70C54.33 70 70 54.33 70 35C70 15.67 54.33 0 35 0C15.67 0 0 15.67 0 35C0 54.33 15.67 70 35 70Z" fill="#0C2556"/>
<path d="M35.0021 20C30.7164 20 27.213 23.5034 27.213 27.7891C27.213 32.0749 30.7164 35.5783 35.0021 35.5783C39.2879 35.5783 42.7913 32.0749 42.7913 27.7891C42.7913 23.5034 39.2879 20 35.0021 20Z" fill="#164194"/>
<path d="M48.3695 40.8025C48.1654 40.2923 47.8933 39.8161 47.5872 39.374C46.0226 37.061 43.6076 35.5304 40.8866 35.1562C40.5464 35.1223 40.1723 35.1902 39.9002 35.3943C38.4716 36.4488 36.7709 36.993 35.0022 36.993C33.2334 36.993 31.5328 36.4488 30.1042 35.3943C29.8321 35.1902 29.4579 35.0882 29.1178 35.1562C26.3967 35.5304 23.9477 37.061 22.4171 39.374C22.111 39.8161 21.8389 40.3264 21.6348 40.8025C21.5328 41.0066 21.5668 41.2447 21.6688 41.4488C21.941 41.925 22.2811 42.4012 22.5872 42.8094C23.0634 43.4557 23.5736 44.0339 24.1518 44.5781C24.628 45.0542 25.1722 45.4964 25.7165 45.9386C28.4035 47.9455 31.6349 48.9998 34.9682 48.9998C38.3015 48.9998 41.5328 47.9454 44.2199 45.9386C44.7641 45.5305 45.3083 45.0542 45.7845 44.5781C46.3287 44.0339 46.873 43.4556 47.3492 42.8094C47.6893 42.3672 47.9955 41.925 48.2675 41.4488C48.4375 41.2447 48.4715 41.0066 48.3695 40.8025Z" fill="#617FB8"/>
</svg>
