<svg width="42" height="42" viewBox="0 0 42 42" fill="none" xmlns="http://www.w3.org/2000/svg">
<rect opacity="0.154157" x="1" y="1" width="40" height="40" rx="20" stroke="#657EAE"/>
<path fill-rule="evenodd" clip-rule="evenodd" d="M23.0972 30.6883C22.7155 30.6883 22.3839 30.9508 22.3026 31.3257C22.24 31.6068 22.1336 31.838 21.9897 32.0067C21.9084 32.1005 21.6706 32.3754 20.9824 32.3754C20.2941 32.3754 20.0564 32.0942 19.9751 32.0067C19.8311 31.838 19.7248 31.6068 19.6622 31.3257C19.5809 30.9508 19.2493 30.6883 18.8676 30.6883C18.3421 30.6883 17.9604 31.1757 18.073 31.6818C18.3858 33.0752 19.3869 34 20.9824 34C22.5778 34 23.5789 33.0815 23.8918 31.6818C24.0044 31.1757 23.6165 30.6883 23.0972 30.6883H23.0972ZM30.7491 27.5141C29.7856 26.2457 27.8898 25.5021 27.8898 19.8223C27.8898 13.9925 25.312 11.6493 22.9095 11.087C22.6842 11.0307 22.5215 10.9558 22.5215 10.7183V10.5371C22.5215 9.70607 21.8458 9 21.0199 9H20.9824C20.1565 9 19.4808 9.70607 19.4808 10.5371V10.7183C19.4808 10.9495 19.3181 11.0307 19.0929 11.087C16.684 11.6556 14.1125 13.9925 14.1125 19.8223C14.1125 25.5021 12.2167 26.2394 11.2532 27.5141C10.6338 28.3327 11.2219 29.5011 12.248 29.5011H29.7731C30.7804 29.5011 31.3623 28.3264 30.7491 27.5141ZM28.309 27.8765H13.7183C13.4806 27.8765 13.3555 27.6016 13.5119 27.4204C13.9498 26.9205 14.4316 26.2644 14.8258 25.3334C15.4264 23.9213 15.7205 22.1155 15.7205 19.8223C15.7205 17.4916 16.1585 15.6671 17.0281 14.3987C17.804 13.2614 18.7738 12.8303 19.4495 12.6741C19.9751 12.5491 20.3505 12.3117 20.6132 12.018C20.8135 11.7931 21.1576 11.7806 21.3578 12.0055C21.6769 12.3617 22.1086 12.5741 22.534 12.6741C23.2098 12.8303 24.1796 13.2614 24.9554 14.3987C25.8251 15.6671 26.263 17.4916 26.263 19.8223C26.263 22.1155 26.5571 23.9213 27.1578 25.3334C27.5644 26.2832 28.0587 26.9518 28.503 27.4516C28.6406 27.6203 28.528 27.8765 28.309 27.8765H28.309Z" fill="#0C2556"/>
</svg>
