<svg width="20" height="8" viewBox="0 0 20 8" fill="none" xmlns="http://www.w3.org/2000/svg">
<path fill-rule="evenodd" clip-rule="evenodd" d="M18.8428 1.41153L18.9855 1.3022C19.263 1.07915 19.3282 0.63877 19.1361 0.318389C18.9423 -0.00484875 18.5612 -0.0778011 18.2894 0.142199C8.7794 7.86753 1.85677 0.522389 1.56595 0.20677C1.32054 -0.0600868 0.933823 -0.046563 0.705299 0.236866C0.475626 0.521437 0.486774 0.96658 0.729725 1.23439C0.74284 1.24887 0.959397 1.47915 1.35464 1.81991L0.136446 4.1542C-0.0373244 4.48715 0.0538231 4.92182 0.340544 5.12544C0.438577 5.19401 0.549889 5.22848 0.657594 5.22848C0.862348 5.22848 1.06169 5.10753 1.17759 4.88982L2.36874 2.60925C3.03661 3.08163 3.893 3.59744 4.91333 4.03325L4.32628 6.31363C4.22907 6.68906 4.41087 7.08068 4.73202 7.19229L4.9071 7.22239C5.16661 7.22239 5.40923 7.02429 5.48825 6.71782L6.06956 4.46868C7.01136 4.76791 8.06497 4.97001 9.20202 5.01801V7.27668C9.20202 7.66753 9.47366 7.98315 9.81005 7.98315C10.1461 7.98315 10.4179 7.66753 10.4179 7.27668V5.00544C11.4101 4.9422 12.4615 4.74391 13.5594 4.3801L14.3078 6.67306C14.401 6.95553 14.6322 7.12848 14.8763 7.12848L15.0914 7.08391C15.4053 6.94525 15.5645 6.53782 15.4451 6.17325L14.7164 3.93915C15.7161 3.50772 16.7494 2.93972 17.8166 2.1862L18.8017 3.71401C18.9217 3.89858 19.1048 3.99763 19.2878 3.99763C19.4153 3.99763 19.5427 3.95268 19.652 3.85572C19.9215 3.62144 19.976 3.17858 19.7753 2.86677L18.8428 1.41153Z" fill="#0C2556"/>
</svg>
