<svg width="26" height="25" viewBox="0 0 26 25" fill="none" xmlns="http://www.w3.org/2000/svg">
<path d="M20.4825 25H4.72673C2.116 25 0 22.9016 0 20.3125V4.6875C0 2.09844 2.116 0 4.72673 0H20.4825C23.0932 0 25.2092 2.09844 25.2092 4.6875V20.3125C25.2092 22.9016 23.0932 25 20.4825 25Z" fill="white" fill-opacity="0.35"/>
<path d="M15.2701 6H9.72979C9.12366 6 8.63184 6.49182 8.63184 7.09795V17.902C8.63184 18.5082 9.12366 19 9.72979 19H15.2701C15.8762 19 16.368 18.5082 16.368 17.902V7.09795C16.368 6.49182 15.8762 6 15.2701 6ZM15.8629 17.9207C15.8576 18.237 15.6024 18.4922 15.286 18.4949H9.74042C9.42406 18.4922 9.16885 18.237 9.16353 17.9207V16.5276H15.8629V17.9207ZM15.8629 15.9959H9.16353V8.6319H15.8629V15.9959ZM15.8629 8.1002H9.16353V7.10593C9.16885 6.78957 9.42406 6.53436 9.74042 6.5317H15.286C15.6024 6.53436 15.8576 6.78957 15.8629 7.10593V8.1002Z" fill="#D0D7E6"/>
<path d="M13.415 6.98364H11.6125C11.4663 6.98364 11.3467 7.10327 11.3467 7.24949C11.3467 7.39571 11.4663 7.51534 11.6125 7.51534H13.415C13.5612 7.51534 13.6808 7.39571 13.6808 7.24949C13.6808 7.10327 13.5612 6.98364 13.415 6.98364Z" fill="#D0D7E6"/>
<path d="M12.5129 16.6846C12.0609 16.6846 11.6914 17.0514 11.6914 17.506C11.6941 17.958 12.0609 18.3249 12.5129 18.3249C12.9648 18.3249 13.3344 17.958 13.3344 17.5034C13.3344 17.0488 12.9648 16.6846 12.5129 16.6846ZM12.5129 17.7958C12.3534 17.7958 12.2231 17.6656 12.2231 17.506C12.2231 17.3465 12.3534 17.2163 12.5129 17.2163C12.6724 17.2163 12.8027 17.3465 12.8027 17.506C12.8027 17.6656 12.6724 17.7958 12.5129 17.7958Z" fill="#D0D7E6"/>
<path d="M12.5133 9.80957C11.0192 9.80957 9.80957 11.0192 9.80957 12.5133C9.81223 14.0047 11.0218 15.2143 12.5133 15.2169C14.0073 15.2169 15.2169 14.0073 15.2169 12.5133C15.2169 11.0192 14.0073 9.80957 12.5133 9.80957ZM12.5133 14.6852C11.3143 14.6852 10.3413 13.7122 10.3413 12.5133C10.3439 11.3143 11.3143 10.3439 12.5133 10.3413C13.7122 10.3413 14.6852 11.3143 14.6852 12.5133C14.6852 13.7122 13.7122 14.6852 12.5133 14.6852Z" fill="#D0D7E6"/>
<path d="M13.5581 10.9846C13.5581 10.9846 13.5555 10.9846 13.5555 10.9819C13.4358 10.8968 13.2683 10.9261 13.1859 11.0457L12.524 11.9815L11.862 11.0484C11.7769 10.9287 11.6121 10.8995 11.4925 10.9846C11.3728 11.0696 11.3436 11.2345 11.4287 11.3541L12.2475 12.5132H11.9604C11.8142 12.5132 11.6945 12.6328 11.6945 12.779C11.6945 12.9253 11.8142 13.0449 11.9604 13.0449H12.2475V13.231H11.9577C11.8115 13.231 11.6919 13.3506 11.6919 13.4968C11.6919 13.643 11.8115 13.7627 11.9577 13.7627H12.2475V13.9009C12.2475 14.0471 12.3671 14.1668 12.5133 14.1668C12.6596 14.1668 12.7792 14.0471 12.7792 13.9009V13.7627H13.069C13.2152 13.7627 13.3348 13.643 13.3348 13.4968C13.3348 13.3506 13.2152 13.231 13.069 13.231H12.7792V13.0449H13.069C13.2152 13.0449 13.3348 12.9253 13.3348 12.779C13.3348 12.6328 13.2152 12.5132 13.069 12.5132H12.7925L13.6193 11.3514C13.7043 11.2345 13.6751 11.0696 13.5581 10.9846Z" fill="#D0D7E6"/>
</svg>
