<svg width="40" height="35" viewBox="0 0 40 35" fill="none" xmlns="http://www.w3.org/2000/svg">
<g clip-path="url(#clip0)">
<path d="M3.03701 11.7653C2.91236 11.1807 2.84924 10.5873 2.84841 9.99263C2.85603 4.46935 7.9793 -0.0027519 14.2916 0.00391369C19.0969 0.00896782 23.3853 2.64334 25.023 6.59619C27.9554 5.57481 31.2789 6.82677 32.4462 9.39258C32.5473 9.61467 32.63 9.84277 32.6937 10.0752C37.3759 10.6879 40.6038 14.5058 39.9036 18.6027C39.2756 22.2771 35.6681 24.9955 31.4222 24.994H24.2788C23.4897 24.994 22.85 24.4343 22.85 23.7438C22.85 23.0534 23.4897 22.4937 24.2788 22.4937H31.4222C34.5784 22.4937 37.137 20.2549 37.137 17.4933C37.137 14.7316 34.5784 12.4928 31.4222 12.4928C30.6331 12.4928 29.9935 11.9331 29.9935 11.2427C29.9909 9.86189 28.7095 8.74434 27.1314 8.74661C26.3851 8.74771 25.6689 9.00422 25.136 9.46129C24.574 9.9459 23.6694 9.94012 23.1156 9.4484C22.9076 9.26374 22.7704 9.02715 22.723 8.77122C21.9475 4.68887 17.5366 1.92961 12.8711 2.60818C8.20558 3.28676 5.05214 7.14621 5.82764 11.2286C5.87386 11.472 5.93388 11.7132 6.00729 11.9514C6.17154 12.4733 5.93337 13.0283 5.4172 13.3265C2.7873 14.8534 2.06997 17.9567 3.81503 20.2579C4.87123 21.6507 6.65288 22.4896 8.56319 22.4935H12.8493C13.6383 22.4935 14.278 23.0532 14.278 23.7437C14.278 24.4341 13.6383 24.9938 12.8493 24.9938H8.56319C3.82893 24.9899 -0.00534439 21.6286 -0.000823975 17.4861C0.00152206 15.2812 1.11255 13.1889 3.03701 11.7653Z" fill="#0C2556"/>
<path d="M10.4442 26.6107C10.9979 26.1429 11.8756 26.1429 12.4292 26.6107L17.1368 30.7274V12.4933C17.1368 11.8029 17.7764 11.2432 18.5655 11.2432C19.3545 11.2432 19.9942 11.8029 19.9942 12.4933V30.7273L24.6989 26.6107C25.2665 26.131 26.1709 26.1448 26.7191 26.6413C27.2538 27.1258 27.2538 27.8938 26.7191 28.3783L19.5756 34.6288C19.0184 35.1176 18.1138 35.1186 17.5552 34.631C17.5543 34.6302 17.5535 34.6295 17.5526 34.6288L10.4091 28.3783C9.8609 27.8817 9.87664 27.0904 10.4442 26.6107Z" fill="#0C2556"/>
</g>
<defs>
<clipPath id="clip0">
<rect width="40" height="35" fill="white" transform="matrix(-1 0 0 1 40 0)"/>
</clipPath>
</defs>
</svg>
