<svg width="40" height="40" viewBox="0 0 40 40" fill="none" xmlns="http://www.w3.org/2000/svg">
<g id="Email step">
<path id="Oval" opacity="0.1" d="M20 40C31.0457 40 40 31.0457 40 20C40 8.9543 31.0457 0 20 0C8.9543 0 0 8.9543 0 20C0 31.0457 8.9543 40 20 40Z" fill="#657EAE"/>
<g id="Shape">
<path fill-rule="evenodd" clip-rule="evenodd" d="M10 20C10 14.4861 14.4861 10 20 10C25.5139 10 30 14.4861 30 20V20.625C30 22.348 28.598 23.75 26.875 23.75C25.8288 23.75 24.9063 23.2286 24.3388 22.4368C23.4805 23.9584 21.8679 25 20 25C17.243 25 15 22.757 15 20C15 17.243 17.243 15 20 15C21.5004 15 22.8328 15.678 23.75 16.728V16.25H25V20.625C25 21.659 25.841 22.5 26.875 22.5C27.9089 22.5 28.75 21.659 28.75 20.625V20C28.75 15.1752 24.8248 11.25 20 11.25C15.1752 11.25 11.25 15.1752 11.25 20C11.25 24.8249 15.1752 28.75 20 28.75C21.6577 28.75 23.2715 28.2843 24.6661 27.403L25.3338 28.4601C23.739 29.4672 21.8945 30 20 30C14.4861 30 10 25.5139 10 20ZM16.25 20C16.25 22.0679 17.9321 23.75 20 23.75C22.0679 23.75 23.75 22.0679 23.75 20C23.75 17.9321 22.0679 16.25 20 16.25C17.9321 16.25 16.25 17.9321 16.25 20Z" fill="#657EAE"/>
<path d="M24.3388 22.4368L24.4607 22.3494L24.3237 22.1583L24.2081 22.3631L24.3388 22.4368ZM23.75 16.728L23.637 16.8267L23.9 17.1277V16.728H23.75ZM23.75 16.25V16.1H23.6V16.25H23.75ZM25 16.25H25.15V16.1H25V16.25ZM24.6661 27.403L24.7929 27.3229L24.7128 27.196L24.586 27.2762L24.6661 27.403ZM25.3338 28.4601L25.4139 28.5869L25.5408 28.5068L25.4607 28.38L25.3338 28.4601ZM20 9.85C14.4033 9.85 9.85 14.4033 9.85 20H10.15C10.15 14.5689 14.5689 10.15 20 10.15V9.85ZM30.15 20C30.15 14.4033 25.5967 9.85 20 9.85V10.15C25.4311 10.15 29.85 14.5689 29.85 20H30.15ZM30.15 20.625V20H29.85V20.625H30.15ZM26.875 23.9C28.6808 23.9 30.15 22.4309 30.15 20.625H29.85C29.85 22.2652 28.5152 23.6 26.875 23.6V23.9ZM24.2168 22.5242C24.8108 23.3528 25.7775 23.9 26.875 23.9V23.6C25.8801 23.6 25.0018 23.1043 24.4607 22.3494L24.2168 22.5242ZM20 25.15C21.9257 25.15 23.5864 24.0759 24.4694 22.5105L24.2081 22.3631C23.3746 23.8408 21.8101 24.85 20 24.85V25.15ZM14.85 20C14.85 22.8398 17.1602 25.15 20 25.15V24.85C17.3259 24.85 15.15 22.6741 15.15 20H14.85ZM20 14.85C17.1602 14.85 14.85 17.1602 14.85 20H15.15C15.15 17.3259 17.3259 15.15 20 15.15V14.85ZM23.863 16.6293C22.9196 15.5494 21.5471 14.85 20 14.85V15.15C21.4537 15.15 22.746 15.8067 23.637 16.8267L23.863 16.6293ZM23.6 16.25V16.728H23.9V16.25H23.6ZM25 16.1H23.75V16.4H25V16.1ZM25.15 20.625V16.25H24.85V20.625H25.15ZM26.875 22.35C25.9239 22.35 25.15 21.5761 25.15 20.625H24.85C24.85 21.7418 25.7582 22.65 26.875 22.65V22.35ZM28.6 20.625C28.6 21.5761 27.8261 22.35 26.875 22.35V22.65C27.9918 22.65 28.9 21.7418 28.9 20.625H28.6ZM28.6 20V20.625H28.9V20H28.6ZM20 11.4C24.742 11.4 28.6 15.258 28.6 20H28.9C28.9 15.0923 24.9077 11.1 20 11.1V11.4ZM11.4 20C11.4 15.258 15.258 11.4 20 11.4V11.1C15.0923 11.1 11.1 15.0924 11.1 20H11.4ZM20 28.6C15.258 28.6 11.4 24.742 11.4 20H11.1C11.1 24.9077 15.0924 28.9 20 28.9V28.6ZM24.586 27.2762C23.2154 28.1423 21.6295 28.6 20 28.6V28.9C21.6859 28.9 23.3275 28.4264 24.7462 27.5298L24.586 27.2762ZM25.4607 28.38L24.7929 27.3229L24.5393 27.4831L25.207 28.5402L25.4607 28.38ZM20 30.15C21.9228 30.15 23.795 29.6092 25.4139 28.5869L25.2538 28.3333C23.683 29.3251 21.8663 29.85 20 29.85V30.15ZM9.85 20C9.85 25.5967 14.4033 30.15 20 30.15V29.85C14.5689 29.85 10.15 25.4311 10.15 20H9.85ZM20 23.6C18.015 23.6 16.4 21.985 16.4 20H16.1C16.1 22.1507 17.8493 23.9 20 23.9V23.6ZM23.6 20C23.6 21.985 21.985 23.6 20 23.6V23.9C22.1507 23.9 23.9 22.1507 23.9 20H23.6ZM20 16.4C21.985 16.4 23.6 18.015 23.6 20H23.9C23.9 17.8493 22.1507 16.1 20 16.1V16.4ZM16.4 20C16.4 18.015 18.015 16.4 20 16.4V16.1C17.8493 16.1 16.1 17.8493 16.1 20H16.4Z" fill="#657EAE"/>
</g>
</g>
</svg>
