<svg width="26" height="25" viewBox="0 0 26 25" fill="none" xmlns="http://www.w3.org/2000/svg">
<path d="M20.6915 25H4.93571C2.32498 25 0.208984 22.9016 0.208984 20.3125V4.6875C0.208984 2.09844 2.32498 0 4.93571 0H20.6915C23.3022 0 25.4182 2.09844 25.4182 4.6875V20.3125C25.4182 22.9016 23.3022 25 20.6915 25Z" fill="white" fill-opacity="0.35"/>
<g clip-path="url(#clip0)">
<path d="M18.5425 6.91411L18.5426 6.91407C18.8675 6.83565 19.1668 7.12672 19.0877 7.4579L18.5425 6.91411ZM18.5425 6.91411L18.539 6.91492L18.53 6.91712L18.5299 6.91715L7.59197 9.90023C7.23867 9.99659 7.14168 10.4521 7.42366 10.6844L7.42366 10.6844L10.7749 13.4453L10.1698 15.2605L10.2647 15.2922L10.1698 15.2605C10.0525 15.6127 10.3882 15.9493 10.741 15.8317L10.741 15.8317L12.5562 15.2267L15.3171 18.5779L15.3172 18.5779C15.5505 18.8611 16.0052 18.7619 16.1013 18.4096L16.1013 18.4096L19.0844 7.47161L19.0844 7.47155L19.0867 7.4623L19.0876 7.45818L18.5425 6.91411ZM8.67115 10.542L16.6916 8.35462L11.304 12.7111L8.67115 10.542ZM15.6145 10.387L12.4395 14.3136L11.3122 14.6893L11.688 13.5621L15.6145 10.387ZM13.2904 14.6976L17.6469 9.3099L15.4595 17.3304L13.2904 14.6976Z" fill="#D0D7E6" stroke="#D0D7E6" stroke-width="0.2"/>
<path d="M7.52808 17.8354C7.70434 17.659 7.99026 17.6588 8.1667 17.8351L7.52808 17.8354ZM7.52808 17.8354C7.52808 17.8354 7.52808 17.8354 7.52808 17.8354M7.52808 17.8354L7.52808 17.8354M7.52808 17.8354L7.03114 18.3328L7.52808 17.8354ZM7.03144 18.9714C6.855 18.7952 6.85488 18.5092 7.03114 18.3328L7.03144 18.9714ZM7.03144 18.9714C7.20162 19.1414 7.50003 19.1413 7.67004 18.9711M7.03144 18.9714L7.67004 18.9711M7.67004 18.9711C7.67004 18.9711 7.67004 18.9711 7.67004 18.9711M7.67004 18.9711L7.67004 18.9711M7.67004 18.9711L8.167 18.4737L8.16701 18.4737M7.67004 18.9711L8.16701 18.4737M8.16701 18.4737C8.34327 18.2973 8.34315 18.0114 8.16671 17.8351L8.16701 18.4737Z" fill="#D0D7E6" stroke="#D0D7E6" stroke-width="0.2"/>
<path d="M9.01968 16.3432L9.01968 16.3432L8.52273 16.8406C8.43751 16.9259 8.39995 17.0468 8.4 17.16C8.40005 17.2731 8.43773 17.394 8.52304 17.4792L8.52304 17.4792C8.60678 17.5629 8.73049 17.5973 8.84236 17.5973C8.95423 17.5972 9.07794 17.5627 9.16163 17.4789L9.16164 17.4789L9.65858 16.9815C9.65858 16.9815 9.65859 16.9815 9.65859 16.9815C9.83485 16.8051 9.83473 16.5192 9.65828 16.3429C9.48185 16.1666 9.19597 16.1668 9.01968 16.3432Z" fill="#D0D7E6" stroke="#D0D7E6" stroke-width="0.2"/>
</g>
<defs>
<clipPath id="clip0">
<rect width="12" height="12" fill="white" transform="translate(7 7)"/>
</clipPath>
</defs>
</svg>
