<svg width="20" height="20" viewBox="0 0 20 20" fill="none" xmlns="http://www.w3.org/2000/svg">
<path d="M9.99998 20C15.5228 20 20 15.5228 20 9.99998C20 4.47714 15.5228 0 9.99998 0C4.47714 0 0 4.47714 0 9.99998C0 15.5228 4.47714 20 9.99998 20Z" fill="#657EAE"/>
<path d="M15.2882 11.4385C13.399 13.3277 10.336 13.3277 8.4468 11.4385C6.55762 9.54931 6.55762 6.48627 8.4468 4.59709C8.84072 4.20318 9.28573 3.89172 9.76039 3.66211C8.20574 3.70356 6.66348 4.31736 5.47697 5.50383C3.01809 7.96271 3.01809 11.9494 5.47697 14.4083C7.93585 16.8672 11.9225 16.8672 14.3814 14.4083C15.5679 13.2218 16.1817 11.6795 16.2231 10.1249C15.9936 10.5996 15.6821 11.0446 15.2882 11.4385Z" fill="#FCD57E"/>
<path d="M13.8985 5.99884L14.1215 8.01643L14.3446 5.99884L16.3622 5.77583L14.3446 5.55274L14.1215 3.53516L13.8985 5.55274L11.8809 5.77583L13.8985 5.99884Z" fill="white"/>
<path d="M4.38907 16.0404L4.54884 17.4856L4.70861 16.0404L6.15384 15.8806L4.70861 15.7209L4.54884 14.2756L4.38907 15.7209L2.94385 15.8806L4.38907 16.0404Z" fill="white"/>
<path d="M9.70174 9.61198L9.41553 9.89819L9.70175 10.1844L9.98796 9.89819L9.70174 9.61198Z" fill="white"/>
<path d="M16.567 7.47013L16.2808 7.75635L16.567 8.04256L16.8532 7.75635L16.567 7.47013Z" fill="white"/>
<path d="M17.7808 11.0265L17.4946 11.3127L17.7808 11.599L18.0671 11.3127L17.7808 11.0265Z" fill="white"/>
<path d="M3.17342 4.78092L2.88721 5.06714L3.17342 5.35336L3.45964 5.06714L3.17342 4.78092Z" fill="white"/>
<path d="M13.7305 16.3786L13.4443 16.6648L13.7305 16.951L14.0168 16.6648L13.7305 16.3786Z" fill="white"/>
<path d="M4.79549 3.73991L4.50928 4.02612L4.79549 4.31234L5.0817 4.02612L4.79549 3.73991Z" fill="white"/>
</svg>
