<svg width="19" height="27" viewBox="0 0 19 27" fill="none" xmlns="http://www.w3.org/2000/svg">
<path fill-rule="evenodd" clip-rule="evenodd" d="M12.3415 9.14562C13.4614 8.21354 14.1849 6.7451 14.1849 5.09625C14.1849 2.28619 12.0832 0 9.49994 0C6.91662 0 4.81494 2.28619 4.81494 5.0963C4.81494 6.74515 5.53848 8.21359 6.65833 9.14567C4.50599 9.2831 2.79369 11.2313 2.79369 13.6065V16.7487C2.79369 17.04 3.01078 17.276 3.27847 17.276H15.7213C15.989 17.276 16.2061 17.04 16.2061 16.7487V13.6065C16.2061 11.2313 14.4938 9.28304 12.3415 9.14562ZM5.78393 5.0963C5.78393 2.86775 7.45066 1.05469 9.49935 1.05469C11.548 1.05469 13.2148 2.86775 13.2148 5.0963C13.2148 7.32486 11.548 9.13792 9.49935 9.13792C7.45066 9.13792 5.78393 7.3248 5.78393 5.0963ZM3.76342 16.2213H15.2366V13.6064C15.2366 11.724 13.8288 10.1926 12.0983 10.1926H6.90176C5.17128 10.1926 3.76342 11.724 3.76342 13.6064V16.2213ZM11.6915 27H18.5152C18.7829 27 19 26.7639 19 26.4727V20.2899C19 19.9987 18.7829 19.7625 18.5152 19.7625H0.484783C0.217086 19.7625 0 19.9987 0 20.2899V26.4727C0 26.7639 0.217086 27 0.484783 27H7.30849C7.57624 27 7.79327 26.7639 7.79327 26.4727C7.79327 26.1815 7.57624 25.9453 7.30849 25.9453H0.969566V20.8172H18.0304V25.9453H11.6915C11.4238 25.9453 11.2067 26.1815 11.2067 26.4727C11.2067 26.7639 11.4238 27 11.6915 27ZM8.34212 23.9086H7.01701C6.74931 23.9086 6.53223 23.6725 6.53223 23.3813C6.53223 23.0901 6.74931 22.8539 7.01701 22.8539H8.34212C8.60986 22.8539 8.8269 23.0901 8.8269 23.3813C8.8269 23.6725 8.60986 23.9086 8.34212 23.9086ZM11.9837 23.9086H10.6586C10.3909 23.9086 10.1738 23.6725 10.1738 23.3813C10.1738 23.0901 10.3909 22.8539 10.6586 22.8539H11.9837C12.2514 22.8539 12.4685 23.0901 12.4685 23.3813C12.4685 23.6725 12.2514 23.9086 11.9837 23.9086ZM14.2992 23.9086H15.6243C15.892 23.9086 16.1091 23.6725 16.1091 23.3813C16.1091 23.0901 15.892 22.8539 15.6243 22.8539H14.2992C14.0315 22.8539 13.8145 23.0901 13.8145 23.3813C13.8145 23.6725 14.0315 23.9086 14.2992 23.9086ZM9.49029 27C9.28508 27 9.09839 26.8542 9.03159 26.6434C8.96551 26.4348 9.02979 26.1965 9.18904 26.0597C9.34621 25.9248 9.56742 25.9098 9.73937 26.0208C9.91292 26.1328 10.0055 26.3603 9.96542 26.5755C9.92015 26.8189 9.7192 27 9.49029 27ZM3.37638 23.9086H4.70144C4.96919 23.9086 5.18622 23.6725 5.18622 23.3813C5.18622 23.0901 4.96919 22.8539 4.70144 22.8539H3.37638C3.10869 22.8539 2.8916 23.0901 2.8916 23.3813C2.8916 23.6725 3.10864 23.9086 3.37638 23.9086Z" fill="#0C2556"/>
</svg>
