<svg width="26" height="25" viewBox="0 0 26 25" fill="none" xmlns="http://www.w3.org/2000/svg">
<path d="M20.4825 25H4.72673C2.116 25 0 22.9016 0 20.3125V4.6875C0 2.09844 2.116 0 4.72673 0H20.4825C23.0932 0 25.2092 2.09844 25.2092 4.6875V20.3125C25.2092 22.9016 23.0932 25 20.4825 25Z" fill="white" fill-opacity="0.35"/>
<path d="M15.6403 10.554H16.437C16.5695 10.554 16.6769 10.4489 16.6769 10.3191C16.6769 10.1894 16.5695 10.0842 16.437 10.0842H15.6403C15.5078 10.0842 15.4004 10.1894 15.4004 10.3191C15.4004 10.4489 15.5078 10.554 15.6403 10.554Z" fill="#D0D7E6" stroke="#D0D7E6" stroke-width="0.01"/>
<path d="M15.6403 12.2149H16.437C16.5695 12.2149 16.6769 12.1098 16.6769 11.98C16.6769 11.8503 16.5695 11.7451 16.437 11.7451H15.6403C15.5078 11.7451 15.4004 11.8503 15.4004 11.98C15.4004 12.1098 15.5078 12.2149 15.6403 12.2149Z" fill="#D0D7E6" stroke="#D0D7E6" stroke-width="0.01"/>
<path d="M15.6403 13.8758H16.437C16.5695 13.8758 16.6769 13.7706 16.6769 13.6409C16.6769 13.5112 16.5695 13.406 16.437 13.406H15.6403C15.5078 13.406 15.4004 13.5112 15.4004 13.6409C15.4004 13.7706 15.5078 13.8758 15.6403 13.8758Z" fill="#D0D7E6" stroke="#D0D7E6" stroke-width="0.01"/>
<path d="M16.4372 15.5367C16.5697 15.5367 16.6771 15.4315 16.6771 15.3018C16.6771 15.1721 16.5697 15.0669 16.4372 15.0669H14.193C14.0605 15.0669 13.9531 15.1721 13.9531 15.3018C13.9531 15.4315 14.0605 15.5367 14.193 15.5367H16.4372Z" fill="#D0D7E6" stroke="#D0D7E6" stroke-width="0.01"/>
<path d="M17.3428 7H10.1239C9.71079 7 9.37468 7.3264 9.37468 7.72757V9.35574C8.00525 9.73632 7 10.963 7 12.4134C7 13.8639 8.00522 15.0905 9.37468 15.4711V18.2724C9.37468 18.6736 9.71079 19 10.1239 19H16.0232C16.0932 19 16.1603 18.973 16.2098 18.925L18.0148 17.1721C18.0643 17.1241 18.0921 17.0589 18.0921 16.9909V7.72757C18.0921 7.3264 17.756 7 17.3428 7ZM10.1239 7.51251H17.3428C17.4649 7.51251 17.5643 7.60898 17.5643 7.72757V8.50095H9.90245V7.72757C9.90245 7.60898 10.0018 7.51251 10.1239 7.51251ZM7.52777 12.4134C7.52777 10.9427 8.75991 9.74615 10.2744 9.74615C11.7889 9.74615 13.0211 10.9427 13.0211 12.4134C13.0211 13.8841 11.7889 15.0807 10.2744 15.0807C8.75991 15.0807 7.52777 13.8841 7.52777 12.4134ZM9.90245 18.2724V15.5725C10.0246 15.586 10.1487 15.5932 10.2744 15.5932C11.258 15.5932 12.1415 15.1698 12.7423 14.501H14.3591C14.5049 14.501 14.623 14.3863 14.623 14.2448C14.623 14.1032 14.5049 13.9885 14.3591 13.9885H13.1181C13.3476 13.5992 13.4947 13.1586 13.5364 12.6891H14.3591C14.5049 12.6891 14.623 12.5744 14.623 12.4329C14.623 12.2913 14.5049 12.1766 14.3591 12.1766H13.5398C13.5041 11.7082 13.3633 11.2677 13.1405 10.8772H14.3591C14.5048 10.8772 14.623 10.7625 14.623 10.621C14.623 10.4795 14.5048 10.3647 14.3591 10.3647H12.7764C12.1753 9.6735 11.2768 9.23362 10.2744 9.23362C10.1486 9.23362 10.0245 9.24079 9.90237 9.25427V9.01346H17.5642V16.7346H16.5084C16.0953 16.7346 15.7592 17.061 15.7592 17.4622V18.4874H10.1239C10.0018 18.4874 9.90245 18.391 9.90245 18.2724ZM16.2871 18.125V17.4622C16.2871 17.3436 16.3864 17.2471 16.5085 17.2471H17.1911L16.2871 18.125Z" fill="#D0D7E6" stroke="#D0D7E6" stroke-width="0.1"/>
<path d="M11.8393 10.7773L11.5466 10.4908C11.4678 10.4136 11.363 10.3711 11.2515 10.3711C11.1401 10.3711 11.0353 10.4136 10.9565 10.4908L9.42136 11.9939L8.99702 11.5784C8.91822 11.5013 8.81342 11.4588 8.70198 11.4588C8.59053 11.4588 8.48573 11.5013 8.40693 11.5784L8.11419 11.865C7.95152 12.0243 7.95152 12.2836 8.11421 12.4429L9.12627 13.4338C9.20509 13.511 9.30989 13.5536 9.42136 13.5536C9.53281 13.5536 9.63763 13.511 9.71641 13.4339L11.8393 11.3552C12.002 11.1959 12.002 10.9366 11.8393 10.7773ZM9.42134 13.0584L8.49765 12.1539L8.70195 11.9539L9.2517 12.4922C9.3454 12.5839 9.49728 12.5839 9.59098 12.4922L11.2515 10.8662L11.4558 11.0663L9.42134 13.0584Z" fill="#D0D7E6" stroke="#D0D7E6" stroke-width="0.01"/>
</svg>
