<svg width="26" height="25" viewBox="0 0 26 25" fill="none" xmlns="http://www.w3.org/2000/svg">
<path d="M20.4825 25H4.72673C2.116 25 0 22.9016 0 20.3125V4.6875C0 2.09844 2.116 0 4.72673 0H20.4825C23.0932 0 25.2092 2.09844 25.2092 4.6875V20.3125C25.2092 22.9016 23.0932 25 20.4825 25Z" fill="#657EAE"/>
<path d="M18.8024 14.4143H18.0117C17.9024 14.4143 17.8141 14.5029 17.8141 14.612H15.8374C15.7848 14.612 15.7346 14.6327 15.6976 14.6699L14.5841 15.7834L10.6639 15.1016C10.4759 15.0692 10.2838 15.1206 10.1373 15.2437C9.99124 15.3667 9.90723 15.547 9.90723 15.7381C9.90723 15.9668 10.03 16.1807 10.2277 16.2961L14.5398 18.8115C14.6405 18.8702 14.7527 18.8999 14.8652 18.8997C14.964 18.8997 15.0629 18.8769 15.1544 18.8313L17.2677 17.7747H17.8141C17.8141 17.8838 17.9024 17.9724 18.0117 17.9724H18.8024C18.9117 17.9724 19.0001 17.8838 19.0001 17.7747V14.612C19.0001 14.5029 18.9117 14.4143 18.8024 14.4143ZM17.8141 17.3794H17.221C17.1904 17.3794 17.16 17.3865 17.1327 17.4001L14.9775 18.4778C14.9012 18.5158 14.812 18.5128 14.7391 18.4701L10.4271 15.9548C10.3502 15.9099 10.3026 15.8269 10.3026 15.7381C10.3026 15.664 10.3352 15.594 10.3919 15.5462C10.4486 15.4985 10.523 15.4786 10.5963 15.491L14.2421 16.1251L14.082 16.2853C13.9393 16.4282 13.8606 16.6181 13.8606 16.8202C13.8606 17.2376 14.2002 17.577 14.6173 17.577C14.8195 17.577 15.0095 17.4984 15.1524 17.3553L16.1748 16.3331L15.8953 16.0536L14.8729 17.0759C14.8055 17.1432 14.7126 17.1817 14.6173 17.1817C14.4181 17.1817 14.256 17.0196 14.256 16.8202C14.256 16.7237 14.2935 16.6328 14.3617 16.5646L15.9192 15.0073H17.8141V17.3794ZM18.6047 17.577H18.2094V14.8096H18.6047V17.577Z" fill="#D0D7E6"/>
<path d="M14.0581 10.0654C13.404 10.0654 12.8721 10.5974 12.8721 11.2515C12.8721 11.9055 13.404 12.4375 14.0581 12.4375C14.7122 12.4375 15.2441 11.9055 15.2441 11.2515C15.2441 10.5974 14.7122 10.0654 14.0581 10.0654ZM14.0581 12.0421C13.622 12.0421 13.2674 11.6875 13.2674 11.2515C13.2674 10.8154 13.622 10.4608 14.0581 10.4608C14.4942 10.4608 14.8488 10.8154 14.8488 11.2515C14.8488 11.6875 14.4942 12.0421 14.0581 12.0421Z" fill="#D0D7E6"/>
<path d="M17.814 7.10034H10.3025C10.1932 7.10034 10.1048 7.1889 10.1048 7.29801V8.0887V8.87938H8.52345C8.47087 8.87938 8.42066 8.90013 8.3837 8.9373L7 10.321L7.27951 10.6005L8.60528 9.27472H10.1048V9.86773V10.4607H9.11646V10.8561H10.3025H11.6862C11.9042 10.8561 12.0815 11.0334 12.0815 11.2514C12.0815 11.3568 12.0404 11.456 11.9655 11.5307C11.8906 11.6055 11.7913 11.6468 11.6862 11.6468H10.3025C10.276 11.6468 10.2503 11.6521 10.2264 11.6622C10.2023 11.6723 10.1807 11.6867 10.1625 11.7049L9.56972 12.2977L9.84923 12.5772L10.1048 12.3216V12.6351V13.4258H7.13975V13.8211H10.3025H11.2908H16.8256H17.814C17.9233 13.8211 18.0116 13.7326 18.0116 13.6235V12.6351V9.86773V8.87938V8.0887V7.29801C18.0116 7.1889 17.9233 7.10034 17.814 7.10034ZM10.5002 9.07705H11.0681C10.9965 9.35458 10.7775 9.5734 10.5002 9.64515V9.07705ZM10.5002 13.4258V12.8577C10.7775 12.9295 10.9965 13.1483 11.0681 13.4258H10.5002ZM17.6163 13.4258H17.0484C17.12 13.1483 17.339 12.9295 17.6163 12.8577V13.4258ZM17.6163 12.4552C17.1207 12.5389 16.7296 12.9302 16.6457 13.4258H11.4707C11.3871 12.9302 10.9957 12.5391 10.5002 12.4552V12.0421H11.6862C11.8969 12.0421 12.0956 11.9597 12.245 11.8102C12.3946 11.6608 12.4769 11.4623 12.4769 11.2514C12.4769 10.8154 12.1222 10.4607 11.6862 10.4607H10.5002V10.0476C10.9957 9.964 11.3869 9.57261 11.4707 9.07705H16.6457C16.7294 9.57261 17.1207 9.9638 17.6163 10.0476V12.4552ZM17.6163 9.64515C17.339 9.5734 17.12 9.35458 17.0484 9.07705H17.6163V9.64515ZM17.6163 8.68171H16.8256H11.2908H10.5002V8.28637H17.6163V8.68171ZM17.6163 7.89102H10.5002V7.49568H17.6163V7.89102Z" fill="#D0D7E6"/>
</svg>
