<svg width="26" height="25" viewBox="0 0 26 25" fill="none" xmlns="http://www.w3.org/2000/svg">
<path d="M21.1426 25H5.38294C2.77156 25 0.655029 22.9016 0.655029 20.3125V4.6875C0.655029 2.09844 2.77156 0 5.38294 0H21.1426C23.754 0 25.8706 2.09844 25.8706 4.6875V20.3125C25.8706 22.9016 23.754 25 21.1426 25Z" fill="white" fill-opacity="0.35"/>
<path d="M18.8021 14.4141H18.0114C17.9021 14.4141 17.8138 14.5026 17.8138 14.6117H15.837C15.7845 14.6117 15.7343 14.6325 15.6973 14.6697L14.5838 15.7831L10.6636 15.1014C10.4756 15.0689 10.2835 15.1203 10.137 15.2435C9.99093 15.3664 9.90692 15.5467 9.90692 15.7379C9.90692 15.9666 10.0297 16.1804 10.2273 16.2959L14.5395 18.8112C14.6401 18.87 14.7524 18.8996 14.8649 18.8994C14.9637 18.8994 15.0626 18.8767 15.1541 18.831L17.2674 17.7745H17.8138C17.8138 17.8836 17.9021 17.9721 18.0114 17.9721H18.8021C18.9114 17.9721 18.9998 17.8836 18.9998 17.7745V14.6117C18.9998 14.5026 18.9114 14.4141 18.8021 14.4141ZM17.8138 17.3791H17.2207C17.1901 17.3791 17.1597 17.3862 17.1324 17.3999L14.9772 18.4776C14.9009 18.5155 14.8117 18.5126 14.7388 18.4699L10.4268 15.9545C10.3499 15.9096 10.3023 15.8266 10.3023 15.7379C10.3023 15.6637 10.3349 15.5938 10.3916 15.5459C10.4483 15.4983 10.5227 15.4783 10.596 15.4908L14.2418 16.1249L14.0817 16.285C13.939 16.4279 13.8603 16.6179 13.8603 16.8199C13.8603 17.2374 14.1999 17.5768 14.617 17.5768C14.8192 17.5768 15.0092 17.4981 15.1521 17.355L16.1745 16.3329L15.895 16.0533L14.8726 17.0757C14.8052 17.1429 14.7123 17.1815 14.617 17.1815C14.4178 17.1815 14.2557 17.0194 14.2557 16.8199C14.2557 16.7235 14.2932 16.6325 14.3614 16.5643L15.9189 15.0071H17.8138V17.3791ZM18.6044 17.5768H18.2091V14.8094H18.6044V17.5768Z" fill="#D0D7E6"/>
<path d="M14.0581 10.0664C13.404 10.0664 12.8721 10.5983 12.8721 11.2524C12.8721 11.9065 13.404 12.4385 14.0581 12.4385C14.7122 12.4385 15.2441 11.9065 15.2441 11.2524C15.2441 10.5983 14.7122 10.0664 14.0581 10.0664ZM14.0581 12.0431C13.622 12.0431 13.2674 11.6885 13.2674 11.2524C13.2674 10.8164 13.622 10.4617 14.0581 10.4617C14.4942 10.4617 14.8488 10.8164 14.8488 11.2524C14.8488 11.6885 14.4942 12.0431 14.0581 12.0431Z" fill="#D0D7E6"/>
<path d="M17.814 7.09961H10.3025C10.1932 7.09961 10.1048 7.18817 10.1048 7.29728V8.08796V8.87865H8.52345C8.47087 8.87865 8.42066 8.8994 8.3837 8.93656L7 10.3203L7.27951 10.5998L8.60528 9.27399H10.1048V9.867V10.46H9.11646V10.8554H10.3025H11.6862C11.9042 10.8554 12.0815 11.0327 12.0815 11.2507C12.0815 11.3561 12.0404 11.4553 11.9655 11.53C11.8906 11.6047 11.7913 11.646 11.6862 11.646H10.3025C10.276 11.646 10.2503 11.6514 10.2264 11.6615C10.2023 11.6715 10.1807 11.686 10.1625 11.7042L9.56972 12.297L9.84923 12.5765L10.1048 12.3209V12.6344V13.4251H7.13975V13.8204H10.3025H11.2908H16.8256H17.814C17.9233 13.8204 18.0116 13.7319 18.0116 13.6227V12.6344V9.867V8.87865V8.08796V7.29728C18.0116 7.18817 17.9233 7.09961 17.814 7.09961ZM10.5002 9.07632H11.0681C10.9965 9.35385 10.7775 9.57267 10.5002 9.64442V9.07632ZM10.5002 13.4251V12.857C10.7775 12.9287 10.9965 13.1475 11.0681 13.4251H10.5002ZM17.6163 13.4251H17.0484C17.12 13.1475 17.339 12.9287 17.6163 12.857V13.4251ZM17.6163 12.4545C17.1207 12.5381 16.7296 12.9295 16.6457 13.4251H11.4707C11.3871 12.9295 10.9957 12.5383 10.5002 12.4545V12.0414H11.6862C11.8969 12.0414 12.0956 11.9589 12.245 11.8095C12.3946 11.6601 12.4769 11.4616 12.4769 11.2507C12.4769 10.8146 12.1222 10.46 11.6862 10.46H10.5002V10.0469C10.9957 9.96327 11.3869 9.57188 11.4707 9.07632H16.6457C16.7294 9.57188 17.1207 9.96307 17.6163 10.0469V12.4545ZM17.6163 9.64442C17.339 9.57267 17.12 9.35385 17.0484 9.07632H17.6163V9.64442ZM17.6163 8.68098H16.8256H11.2908H10.5002V8.28563H17.6163V8.68098ZM17.6163 7.89029H10.5002V7.49495H17.6163V7.89029Z" fill="#D0D7E6"/>
</svg>
