<svg width="15" height="15" viewBox="0 0 15 15" fill="none" xmlns="http://www.w3.org/2000/svg">
<path d="M11.4733 6.37905V4.0036C11.4797 2.92877 11.0504 1.89527 10.284 1.14162C9.5431 0.403858 8.57321 0 7.54607 0C7.53017 0 7.51109 0 7.49519 0C5.30419 0.00317999 3.5234 1.79669 3.5234 4.0036V6.37905C2.6966 6.47763 2.09241 7.17087 2.09241 8.01039V13.3464C2.09241 14.2527 2.81744 15 3.72374 15H11.2762C12.1825 15 12.9075 14.2527 12.9075 13.3464V8.01039C12.9043 7.17405 12.3001 6.47763 11.4733 6.37905ZM4.15621 4.0036H4.15939C4.15939 2.14649 5.65717 0.626458 7.49837 0.626458H7.50155C8.37605 0.623277 9.21556 0.969896 9.83566 1.58681C10.4812 2.22599 10.8405 3.09731 10.8342 4.0036V6.38223H10.1346V4.0036C10.1409 3.28175 9.85474 2.58851 9.34276 2.07971C8.85941 1.59635 8.20433 1.32287 7.52063 1.32287H7.50155C6.03876 1.32287 4.85581 2.52491 4.85581 4.00042V6.38223H4.15621V4.0036ZM9.50176 4.0036V6.38223H5.49499V4.0036C5.49499 2.87789 6.39174 1.96205 7.50473 1.96205H7.52381C8.03897 1.96205 8.53505 2.16875 8.90074 2.53445C9.2887 2.92241 9.50812 3.45347 9.50176 4.0036ZM12.3001 13.3559C12.3001 13.9124 11.8486 14.364 11.2921 14.364H3.73646C3.17996 14.364 2.7284 13.9124 2.7284 13.3559V8.02629C2.7284 7.46979 3.17996 7.01823 3.73646 7.01823H11.2921C11.8486 7.01823 12.3001 7.46979 12.3001 8.02629V13.3559Z" fill="white"/>
<path d="M8.59872 10.4984C8.4588 10.0055 8.01042 9.66846 7.49844 9.66846C6.86562 9.66846 6.35046 10.1804 6.35046 10.8164C6.35046 11.3284 6.68754 11.7768 7.18044 11.9167V12.8071C7.18044 12.982 7.32354 13.1251 7.49844 13.1251C7.67334 13.1251 7.81644 12.982 7.81644 12.8071V11.9167C8.42383 11.7418 8.77681 11.1058 8.59872 10.4984ZM7.49844 11.3252C7.21542 11.3252 6.98646 11.0963 6.98646 10.8133C6.98646 10.5302 7.21542 10.3013 7.49844 10.3013C7.78146 10.3013 8.01042 10.5302 8.01042 10.8133C8.01042 11.0963 7.78146 11.3252 7.49844 11.3252Z" fill="white"/>
</svg>
