<svg width="80" height="80" viewBox="0 0 80 80" fill="none" xmlns="http://www.w3.org/2000/svg">
<g id="Group">
<path id="Oval" opacity="0.1" d="M40 80C62.0914 80 80 62.0914 80 40C80 17.9086 62.0914 0 40 0C17.9086 0 0 17.9086 0 40C0 62.0914 17.9086 80 40 80Z" fill="#ADC959"/>
<path id="Mask" fill-rule="evenodd" clip-rule="evenodd" d="M54 40V38.7727C54 37.9545 53.4545 37.4091 52.6364 37.4091C51.8182 37.4091 51.2727 37.9545 51.2727 38.7727V40C51.2727 46.8182 45.8182 52.2727 39 52.2727C32.1818 52.2727 26.7273 46.8182 26.7273 40C26.7273 33.1818 32.1818 27.7273 39 27.7273C40.7727 27.7273 42.4091 28.1364 44.0455 28.8182C44.7273 29.0909 45.5455 28.8182 45.8182 28.1364C46.0909 27.4545 45.8182 26.6364 45.1364 26.3636C43.2273 25.4091 41.0455 25 39 25C30.6818 25 24 31.6818 24 40C24 48.3182 30.6818 55 39 55C47.3182 55 54 48.3182 54 40ZM53.0455 26.7728C53.5909 26.2273 54.4091 26.2273 54.9545 26.7728C55.5 27.3182 55.5 28.1364 54.9545 28.6818L39.9545 43.6818C39.6818 43.9545 39.2727 44.0909 39 44.0909C38.7273 44.0909 38.3182 43.9545 38.0455 43.6818L33.9545 39.5909C33.4091 39.0455 33.4091 38.2273 33.9545 37.6818C34.5 37.1364 35.3182 37.1364 35.8636 37.6818L39 40.8182L53.0455 26.7728Z" fill="#ADC959"/>
</g>
</svg>
