<svg width="80" height="80" viewBox="0 0 80 80" fill="none" xmlns="http://www.w3.org/2000/svg">
<g id="Group">
<path id="Oval" opacity="0.1" d="M40 80C62.0914 80 80 62.0914 80 40C80 17.9086 62.0914 0 40 0C17.9086 0 0 17.9086 0 40C0 62.0914 17.9086 80 40 80Z" fill="#E55F5F"/>
<path id="Mask" fill-rule="evenodd" clip-rule="evenodd" d="M25 40C25 48.3182 31.6818 55 40 55C48.3182 55 55 48.3182 55 40C55 31.6818 48.3182 25 40 25C31.6818 25 25 31.6818 25 40ZM27.7273 40C27.7273 33.1818 33.1818 27.7273 40 27.7273C46.8182 27.7273 52.2727 33.1818 52.2727 40C52.2727 46.8182 46.8182 52.2727 40 52.2727C33.1818 52.2727 27.7273 46.8182 27.7273 40ZM41.3636 40V34.5455C41.3636 33.7273 40.8182 33.1818 40 33.1818C39.1818 33.1818 38.6364 33.7273 38.6364 34.5455V40C38.6364 40.8182 39.1818 41.3636 40 41.3636C40.8182 41.3636 41.3636 40.8182 41.3636 40ZM41.2273 46C41.2273 46.1364 41.0909 46.2727 40.9545 46.4091C40.6818 46.6818 40.4091 46.8182 39.8636 46.8182C39.4545 46.8182 39.1818 46.6818 38.9091 46.4091C38.6364 46.1364 38.5 45.8636 38.5 45.4545C38.5 45.2948 38.5468 45.1818 38.5856 45.0882C38.613 45.0221 38.6364 44.9656 38.6364 44.9091C38.6364 44.7727 38.7727 44.6364 38.9091 44.5C39.3182 44.0909 39.8636 43.9545 40.4091 44.2273C40.4773 44.2273 40.5114 44.2614 40.5455 44.2955C40.5795 44.3295 40.6136 44.3636 40.6818 44.3636C40.8182 44.3636 40.9545 44.5 40.9545 44.5C41.0227 44.5682 41.0568 44.6364 41.0909 44.7045C41.125 44.7727 41.1591 44.8409 41.2273 44.9091C41.3636 45.0455 41.3636 45.3182 41.3636 45.4545C41.3636 45.5227 41.3295 45.625 41.2955 45.7273C41.2614 45.8295 41.2273 45.9318 41.2273 46Z" fill="#E55F5F"/>
</g>
</svg>
