<svg width="26" height="25" viewBox="0 0 26 25" fill="none" xmlns="http://www.w3.org/2000/svg">
<path d="M20.4825 25H4.72673C2.116 25 0 22.9016 0 20.3125V4.6875C0 2.09844 2.116 0 4.72673 0H20.4825C23.0932 0 25.2092 2.09844 25.2092 4.6875V20.3125C25.2092 22.9016 23.0932 25 20.4825 25Z" fill="white" fill-opacity="0.35"/>
<path d="M7.59794 12.9957L8.14237 12.9275C8.30788 12.5225 8.54568 12.148 8.84122 11.8239L8.44094 10.1281C8.42448 10.0584 8.44079 9.98499 8.48523 9.92884C8.52967 9.87268 8.59733 9.83991 8.66894 9.83987L8.72015 9.83984C8.72045 9.83984 8.72066 9.83984 8.72097 9.83984C9.38544 9.83984 9.98429 10.2579 10.2198 10.8711C10.3864 10.8049 10.5577 10.7504 10.7323 10.7091C10.8583 10.6793 10.9846 10.7572 11.0144 10.8832C11.0442 11.0092 10.9662 11.1354 10.8402 11.1652C10.2436 11.3063 9.71143 11.608 9.29195 12.0267C9.27662 12.0492 9.25752 12.069 9.23507 12.0851C8.92928 12.4061 8.68757 12.7911 8.53077 13.2227C8.50075 13.3054 8.4269 13.3643 8.33962 13.3752L7.65613 13.4608C7.54928 13.4741 7.46873 13.5654 7.46873 13.6731V14.8548C7.46873 14.9624 7.5493 15.0537 7.65613 15.0671L8.28948 15.1464C8.38058 15.1578 8.45664 15.2213 8.48406 15.309C8.67196 15.9093 9.02896 16.4402 9.51653 16.8442C9.57027 16.8887 9.60137 16.9548 9.60137 17.0246V18.3201C9.60137 18.4364 9.69596 18.531 9.81221 18.531H11.1718C11.288 18.531 11.3826 18.4364 11.3826 18.3201V17.8264C11.3826 17.6969 11.4876 17.592 11.617 17.592H13.5861C13.7155 17.592 13.8204 17.6969 13.8204 17.8264V18.3201C13.8204 18.4364 13.915 18.531 14.0313 18.531H15.3909C15.5071 18.531 15.6017 18.4364 15.6017 18.3201V17.4054C15.6017 17.3194 15.6487 17.2404 15.7243 17.1994C16.7762 16.6283 17.4297 15.5307 17.4297 14.3349C17.4297 12.539 15.9686 11.0779 14.1726 11.0779H13.8789C13.7495 11.0779 13.6445 10.9729 13.6445 10.8435C13.6445 10.714 13.7495 10.6091 13.8789 10.6091H14.1726C15.9124 10.6091 17.3774 11.8079 17.7853 13.4228H17.957C18.2737 13.4228 18.5313 13.1652 18.5313 12.8486C18.5313 12.5319 18.2737 12.2743 17.957 12.2743C17.8276 12.2743 17.7227 12.1694 17.7227 12.04C17.7227 11.9105 17.8276 11.8056 17.957 11.8056C18.5321 11.8056 19 12.2734 19 12.8486C19 13.4237 18.5321 13.8915 17.957 13.8915H17.8719C17.8893 14.037 17.8984 14.1849 17.8984 14.3349C17.8984 15.6556 17.2016 16.8716 16.0705 17.5418V18.3201C16.0705 18.6949 15.7656 18.9997 15.3909 18.9997H14.0314C13.6566 18.9997 13.3517 18.6949 13.3517 18.3201V18.0608H11.8514V18.3201C11.8514 18.6949 11.5465 18.9997 11.1718 18.9997H9.81226C9.43754 18.9997 9.13267 18.6949 9.13267 18.3201V17.1327C8.6568 16.7142 8.29769 16.1862 8.08516 15.5932L7.59796 15.5322C7.25709 15.4896 7.00002 15.1983 7.00002 14.8548V13.6731C7.00002 13.3296 7.25706 13.0383 7.59794 12.9957ZM9.23483 11.4509C9.40968 11.3079 9.59694 11.1812 9.79391 11.0724C9.66442 10.7003 9.34857 10.4235 8.97191 10.337L9.23483 11.4509Z" fill="white"/>
<path d="M9.67026 12.9515C9.71383 12.9079 9.7743 12.8828 9.83594 12.8828C9.89758 12.8828 9.95805 12.9079 10.0016 12.9515C10.0452 12.9951 10.0703 13.0555 10.0703 13.1172C10.0703 13.1788 10.0453 13.2393 10.0016 13.2829C9.95802 13.3265 9.89758 13.3516 9.83594 13.3516C9.7743 13.3516 9.71383 13.3265 9.67026 13.2829C9.62666 13.2393 9.60156 13.1788 9.60156 13.1172C9.60156 13.0555 9.62666 12.9951 9.67026 12.9515Z" fill="white"/>
<path d="M12.1272 8.36719C12.2566 8.36719 12.3615 8.47212 12.3615 8.60156V9.53121C12.3615 9.66065 12.2566 9.76558 12.1272 9.76558C11.9977 9.76558 11.8928 9.66065 11.8928 9.53121V8.60156C11.8928 8.47214 11.9977 8.36719 12.1272 8.36719Z" fill="white"/>
<path d="M11.9615 7.5843C12.0051 7.5407 12.0655 7.51562 12.1272 7.51562C12.1888 7.51562 12.2493 7.5407 12.2929 7.5843C12.3365 7.62789 12.3616 7.68836 12.3616 7.75C12.3616 7.81187 12.3365 7.87211 12.2929 7.9157C12.2493 7.9593 12.1888 7.98437 12.1272 7.98437C12.0655 7.98437 12.0051 7.9593 11.9615 7.9157C11.9179 7.87211 11.8928 7.81164 11.8928 7.75C11.8928 7.68836 11.9179 7.62812 11.9615 7.5843Z" fill="white"/>
<path d="M14.0313 7C14.1607 7 14.2656 7.10493 14.2656 7.23437V7.63281C14.2656 7.76226 14.1607 7.86719 14.0313 7.86719C13.9018 7.86719 13.7969 7.76226 13.7969 7.63281V7.23437C13.7969 7.10493 13.9018 7 14.0313 7Z" fill="white"/>
<path d="M16.3296 14.3359C16.3296 14.2065 16.4345 14.1016 16.5639 14.1016C16.6934 14.1016 16.7983 14.2065 16.7983 14.3359L16.7983 14.3484C16.7975 14.4773 16.6927 14.5813 16.5639 14.5813C16.5635 14.5813 16.563 14.5813 16.5625 14.5813C16.4331 14.5805 16.3288 14.4749 16.3296 14.3455L16.3296 14.3359Z" fill="white"/>
<path d="M15.2921 16.1802C15.6995 15.9323 16.0176 15.5514 16.1876 15.1076C16.2339 14.9867 16.3694 14.9263 16.4903 14.9726C16.6112 15.0189 16.6716 15.1545 16.6253 15.2754C16.4183 15.8155 16.0314 16.2791 15.5358 16.5807C15.4977 16.6038 15.4557 16.6149 15.4142 16.6149C15.3351 16.6149 15.2579 16.5748 15.2137 16.5023C15.1464 16.3917 15.1816 16.2475 15.2921 16.1802Z" fill="white"/>
<path d="M14.0313 8.125C14.574 8.125 15.0156 8.56659 15.0156 9.10937C15.0156 9.65216 14.574 10.0937 14.0313 10.0937C13.4885 10.0937 13.0469 9.65216 13.0469 9.10937C13.0469 8.56659 13.4885 8.125 14.0313 8.125ZM14.0313 9.625C14.3156 9.625 14.5469 9.39369 14.5469 9.10937C14.5469 8.82505 14.3156 8.59375 14.0313 8.59375C13.7469 8.59375 13.5156 8.82505 13.5156 9.10937C13.5156 9.39369 13.7469 9.625 14.0313 9.625Z" fill="white"/>
<path d="M11.0781 11.9687H11.2891C11.1964 11.8187 11.1428 11.6421 11.1428 11.4531C11.1428 10.9103 11.5844 10.4688 12.1272 10.4688C12.6699 10.4688 13.1115 10.9103 13.1115 11.4531C13.1116 11.6421 13.0579 11.8187 12.9653 11.9687H14.125C14.2544 11.9687 14.3594 12.0737 14.3594 12.2031C14.3594 12.3326 14.2544 12.4375 14.125 12.4375H11.0781C10.9487 12.4375 10.8438 12.3326 10.8438 12.2031C10.8438 12.0737 10.9487 11.9687 11.0781 11.9687ZM12.1272 11.9687C12.4115 11.9687 12.6428 11.7374 12.6428 11.4531C12.6428 11.1688 12.4115 10.9375 12.1272 10.9375C11.8428 10.9375 11.6115 11.1688 11.6115 11.4531C11.6115 11.7374 11.8429 11.9687 12.1272 11.9687Z" fill="white"/>
</svg>
