<svg width="26" height="25" viewBox="0 0 26 25" fill="none" xmlns="http://www.w3.org/2000/svg">
<path d="M20.6915 25H4.93571C2.32498 25 0.208984 22.9016 0.208984 20.3125V4.6875C0.208984 2.09844 2.32498 0 4.93571 0H20.6915C23.3022 0 25.4182 2.09844 25.4182 4.6875V20.3125C25.4182 22.9016 23.3022 25 20.6915 25Z" fill="white" fill-opacity="0.35"/>
<g clip-path="url(#clip0)">
<path d="M17.25 15.625C16.8794 15.625 16.5328 15.4427 16.3229 15.1374L15.7724 14.3366C15.1239 15.4993 13.8911 16.25 12.5 16.25C10.5588 16.25 8.95741 14.7673 8.76861 12.875H9.12502C9.26426 12.875 9.39207 12.7979 9.4569 12.6746C9.52172 12.5513 9.51291 12.4023 9.43402 12.2876L8.88736 11.4924L8.05902 10.2876C7.98909 10.1858 7.87351 10.125 7.75001 10.125C7.73458 10.125 7.71927 10.1259 7.70413 10.1278C7.689 10.1296 7.6741 10.1324 7.65945 10.1361C7.62283 10.1452 7.5879 10.1597 7.55583 10.1792C7.51094 10.2063 7.47158 10.243 7.44099 10.2875L6.06598 12.2875C5.9871 12.4023 5.97829 12.5513 6.04311 12.6746C6.10793 12.7978 6.23575 12.875 6.37501 12.875H6.76197C6.85119 14.2698 7.43702 15.5687 8.43416 16.5659C9.52019 17.6519 10.9641 18.25 12.5 18.25C14.0359 18.25 15.4798 17.6519 16.5658 16.5659C16.8546 16.2772 17.1102 15.9605 17.3297 15.6219C17.3033 15.6238 17.2767 15.625 17.25 15.625Z" fill="#D0D7E6"/>
<path d="M12.7865 12.125H12.215C12.1067 12.125 12.0186 12.0369 12.0186 11.9285V11.6428C12.0186 11.5345 12.1067 11.4464 12.215 11.4464H12.7865C12.8948 11.4464 12.9829 11.5345 12.9829 11.6428C12.9829 11.8499 13.1508 12.0178 13.3579 12.0178C13.565 12.0178 13.7329 11.8499 13.7329 11.6428C13.7329 11.1511 13.3559 10.7459 12.8757 10.7008V10.5C12.8757 10.2929 12.7078 10.125 12.5007 10.125C12.2936 10.125 12.1257 10.2929 12.1257 10.5V10.7008C11.6456 10.7459 11.2686 11.1511 11.2686 11.6428V11.9285C11.2686 12.4504 11.6931 12.875 12.215 12.875H12.7864C12.8947 12.875 12.9828 12.9631 12.9828 13.0714V13.3571C12.9828 13.4654 12.8947 13.5535 12.7864 13.5535H12.215C12.1067 13.5535 12.0186 13.4654 12.0186 13.3571C12.0186 13.15 11.8507 12.9822 11.6436 12.9822C11.4365 12.9822 11.2686 13.1501 11.2686 13.3571C11.2686 13.8489 11.6456 14.2541 12.1257 14.2992V14.4999C12.1257 14.7071 12.2937 14.8749 12.5007 14.8749C12.7078 14.8749 12.8757 14.707 12.8757 14.4999V14.2992C13.3558 14.254 13.7329 13.8488 13.7329 13.3571V13.0714C13.7329 12.5495 13.3083 12.125 12.7865 12.125Z" fill="#D0D7E6"/>
<path d="M18.9565 12.3254C18.8917 12.2022 18.7639 12.125 18.6246 12.125H18.2377C18.1484 10.7303 17.5626 9.43127 16.5655 8.43411C15.4795 7.3481 14.0355 6.75 12.4996 6.75C10.9638 6.75 9.5198 7.3481 8.4338 8.43413C8.14508 8.72285 7.88942 9.03957 7.66992 9.3781C7.69635 9.37622 7.72291 9.375 7.74965 9.375C8.12022 9.375 8.46678 9.55731 8.67668 9.86266L9.2272 10.6634C9.8757 9.50066 11.1085 8.75002 12.4996 8.75002C14.4408 8.75002 16.0422 10.2327 16.231 12.125H15.8746C15.7354 12.125 15.6075 12.2022 15.5427 12.3254C15.4779 12.4487 15.4867 12.5977 15.5656 12.7125L16.1123 13.5076L16.9406 14.7125C16.9581 14.7379 16.9784 14.7608 17.001 14.7808C17.0688 14.8408 17.157 14.875 17.2496 14.875C17.3731 14.875 17.4887 14.8142 17.5587 14.7125L18.0552 13.9903L18.9336 12.7125C19.0126 12.5977 19.0213 12.4486 18.9565 12.3254Z" fill="#D0D7E6"/>
</g>
<defs>
<clipPath id="clip0">
<rect width="13" height="13" fill="white" transform="translate(6 6)"/>
</clipPath>
</defs>
</svg>
