<svg width="97" height="97" viewBox="0 0 97 97" fill="none" xmlns="http://www.w3.org/2000/svg">
<g clip-path="url(#clip0)">
<path d="M49.4468 68.8936C38.7234 68.8936 30 60.1702 30 49.4468C30 38.7234 38.7234 30 49.4468 30C60.1702 30 68.8936 38.7234 68.8936 49.4468C68.8936 60.1702 60.1702 68.8936 49.4468 68.8936ZM49.4468 32.4308C40.0637 32.4308 32.4308 40.0637 32.4308 49.4468C32.4308 58.8298 40.0637 66.4627 49.4468 66.4627C58.8298 66.4627 66.4627 58.8298 66.4627 49.4468C66.4627 40.0637 58.8298 32.4308 49.4468 32.4308Z" fill="#ADC959"/>
<path d="M57.9547 50.6613H40.9388C40.2679 50.6613 39.7234 50.1168 39.7234 49.4459C39.7234 48.775 40.2679 48.2305 40.9388 48.2305H57.9547C58.6257 48.2305 59.1702 48.775 59.1702 49.4459C59.1702 50.1168 58.6257 50.6613 57.9547 50.6613Z" fill="#ADC959"/>
<path d="M49.4467 59.1694C48.7758 59.1694 48.2313 58.6249 48.2313 57.954V40.9381C48.2313 40.2672 48.7758 39.7227 49.4467 39.7227C50.1177 39.7227 50.6622 40.2672 50.6622 40.9381V57.954C50.6622 58.6249 50.1177 59.1694 49.4467 59.1694Z" fill="#ADC959"/>
</g>
<circle cx="48.5" cy="48.5" r="47.75" fill="#ADC959" fill-opacity="0.19" stroke="#ADC959" stroke-width="1.5"/>
<defs>
<clipPath id="clip0">
<rect width="38.8936" height="38.8936" fill="white" transform="translate(30 30)"/>
</clipPath>
</defs>
</svg>
