<svg width="60" height="29" viewBox="0 0 60 29" fill="none" xmlns="http://www.w3.org/2000/svg">
<g filter="url(#filter0_d)">
<path d="M26.6766 18.5596H22.9384L25.2747 4.20151H29.0132L26.6766 18.5596ZM19.7936 4.20151L16.2298 14.0771L15.8081 11.9505L15.8085 11.9513L14.5507 5.49429C14.5507 5.49429 14.3986 4.20151 12.7774 4.20151H6.88578L6.81665 4.44462C6.81665 4.44462 8.61833 4.81947 10.7269 6.08576L13.9746 18.56H17.8694L23.8168 4.20151H19.7936ZM49.1962 18.5596H52.6286L49.6359 4.20112H46.631C45.2433 4.20112 44.9053 5.27114 44.9053 5.27114L39.3302 18.5596H43.2269L44.0062 16.4269H48.7583L49.1962 18.5596ZM45.0828 13.4807L47.0469 8.1075L48.1519 13.4807H45.0828ZM39.6224 7.6543L40.1559 4.57098C40.1559 4.57098 38.5098 3.94495 36.7938 3.94495C34.9387 3.94495 30.5334 4.75572 30.5334 8.69821C30.5334 12.4076 35.7038 12.4536 35.7038 14.402C35.7038 16.3504 31.0661 16.0013 29.5356 14.7727L28.9798 17.9966C28.9798 17.9966 30.649 18.8073 33.1992 18.8073C35.7502 18.8073 39.5986 17.4865 39.5986 13.8916C39.5986 10.1584 34.3818 9.81086 34.3818 8.18778C34.3822 6.56431 38.0228 6.77286 39.6224 7.6543Z" fill="white"/>
<path d="M15.8086 11.9509L14.5508 5.49395C14.5508 5.49395 14.3987 4.20117 12.7775 4.20117H6.88591L6.81677 4.44429C6.81677 4.44429 9.64853 5.03115 12.3647 7.22995C14.9618 9.33159 15.8086 11.9509 15.8086 11.9509Z" fill="white"/>
</g>
<defs>
<filter id="filter0_d" x="0.211146" y="0.642194" width="59.023" height="28.0734" filterUnits="userSpaceOnUse" color-interpolation-filters="sRGB">
<feFlood flood-opacity="0" result="BackgroundImageFix"/>
<feColorMatrix in="SourceAlpha" type="matrix" values="0 0 0 0 0 0 0 0 0 0 0 0 0 0 0 0 0 0 127 0"/>
<feOffset dy="3.30275"/>
<feGaussianBlur stdDeviation="3.30275"/>
<feColorMatrix type="matrix" values="0 0 0 0 0 0 0 0 0 0 0 0 0 0 0 0 0 0 0.08 0"/>
<feBlend mode="normal" in2="BackgroundImageFix" result="effect1_dropShadow"/>
<feBlend mode="normal" in="SourceGraphic" in2="effect1_dropShadow" result="shape"/>
</filter>
</defs>
</svg>
