<svg width="25" height="25" viewBox="0 0 25 25" fill="none" xmlns="http://www.w3.org/2000/svg">
<path d="M20.3125 25H4.6875C2.09844 25 0 22.9016 0 20.3125V4.6875C0 2.09844 2.09844 0 4.6875 0H20.3125C22.9016 0 25 2.09844 25 4.6875V20.3125C25 22.9016 22.9016 25 20.3125 25Z" fill="white" fill-opacity="0.35"/>
<path d="M16.4062 10.807H17.7086V9.76562C17.7086 9.19297 17.2398 8.72422 16.6672 8.72422H16.1461V7.68203C16.1461 7.10938 15.6773 6.64062 15.1047 6.64062H7.8125C7.04141 6.64062 6.40078 7.20312 6.27578 7.94297C6.26562 7.98437 6.25 8.02578 6.25 8.07266V16.0156C6.25 16.875 6.95312 17.5781 7.8125 17.5781H16.6664C17.2391 17.5781 17.7078 17.1094 17.7078 16.5367V15.4953H16.4062C15.1148 15.4953 14.0625 14.443 14.0625 13.1516C14.0625 11.8594 15.1148 10.807 16.4062 10.807ZM12.4531 13.5937L11.2812 15.807C11.2133 15.9375 11.0836 16.0156 10.9375 16.0156C10.7914 16.0156 10.6617 15.9375 10.5938 15.807L9.42188 13.5937C9.35938 13.4789 9.35938 13.3438 9.42188 13.2289L10.5938 11.0156C10.7289 10.7602 11.1461 10.7602 11.2812 11.0156L12.4531 13.2289C12.5156 13.3438 12.5156 13.4789 12.4531 13.5937ZM7.8125 8.72422C7.52578 8.72422 7.29141 8.48984 7.29141 8.20312C7.29141 7.91641 7.52578 7.68203 7.8125 7.68203H15.1039V8.72344H7.8125V8.72422Z" fill="#D0D7E6"/>
<path d="M10.208 13.4117L10.9369 14.7914L11.6658 13.4117L10.9369 12.0312L10.208 13.4117Z" fill="#D0D7E6"/>
<path d="M18.3594 11.5884H16.4062C15.5445 11.5884 14.8438 12.2892 14.8438 13.1509C14.8438 14.0126 15.5445 14.7134 16.4062 14.7134H18.3594C18.575 14.7134 18.75 14.5384 18.75 14.3228V11.979C18.75 11.7634 18.575 11.5884 18.3594 11.5884ZM16.4062 13.672C16.1187 13.672 15.8852 13.4384 15.8852 13.1509C15.8852 12.8634 16.118 12.6298 16.4062 12.6298C16.6945 12.6298 16.9273 12.8626 16.9273 13.1509C16.9273 13.4392 16.6938 13.672 16.4062 13.672Z" fill="#D0D7E6"/>
</svg>
