<svg width="28" height="23" viewBox="0 0 28 23" fill="none" xmlns="http://www.w3.org/2000/svg">
<path d="M5.3291 12.7672C5.86034 11.6452 6.58636 10.6334 7.22697 9.57361C8.97589 6.67891 10.7915 3.82297 12.5081 0.909911C13.206 -0.274285 14.7299 -0.323244 15.4205 0.884412C16.9226 3.51494 18.5496 6.07713 20.1319 8.66379C20.4808 9.23396 20.9141 9.75721 21.1454 10.3927C20.8579 10.5916 20.536 10.715 20.2037 10.8282C18.8507 11.2923 17.4934 11.736 16.1809 12.3163C15.4049 12.6591 14.6747 13.1415 13.8008 13.2557C13.6508 12.6305 13.1987 12.1623 12.906 11.6105C12.1227 10.1346 10.5248 10.2764 9.81129 11.5779C9.14984 12.7845 8.37174 13.9299 7.64571 15.1029C7.11656 14.8326 7.14052 14.2604 6.92594 13.8218C6.2895 12.5285 6.70719 12.5479 5.3291 12.7672Z" fill="white"/>
<path d="M13.801 13.2577C14.675 13.1435 15.4062 12.661 16.1812 12.3183C17.4936 11.7379 18.8509 11.2943 20.204 10.8302C20.5363 10.7159 20.8571 10.5935 21.1456 10.3946C21.7508 10.2059 22.356 10.0183 22.9602 9.82855C23.2029 9.75205 23.4435 9.74593 23.6831 9.83773C24.0435 9.97644 24.3643 10.1733 24.3987 10.5864C24.4362 11.0393 24.1331 11.3402 23.7862 11.5605C23.48 11.7553 23.1352 11.9001 22.7904 12.0225C22.605 12.0878 22.5394 12.2082 22.4717 12.353C22.1331 12.1184 21.8175 12.2316 21.4811 12.3826C19.6009 13.2281 17.828 14.2491 16.1228 15.3936C15.8114 15.6026 15.5302 15.7475 15.6208 16.1687C15.0135 16.0841 14.7229 16.6043 14.3458 16.8817C13.0177 17.8619 11.7105 18.8768 10.4792 19.9692C9.51988 20.8198 8.54907 21.6491 7.50847 22.3998C6.3887 23.2066 5.27207 22.9047 4.29813 22.2346C4.06272 22.0724 3.82835 21.9153 3.57836 21.7766C3.58669 21.643 3.6669 21.5093 3.55336 21.3757C2.93358 20.6526 2.44817 19.8427 1.99923 19.0114C1.89506 18.8176 1.73048 18.787 1.53778 18.7911C1.60132 18.3576 1.34508 18.0241 1.17425 17.662C0.590927 16.4268 0.693008 16.0729 1.81277 15.2783C2.9867 14.444 4.21584 13.6841 5.32831 12.7671C6.70641 12.5468 6.28871 12.5274 6.92411 13.8238C7.13869 14.2624 7.11473 14.8346 7.64388 15.1049C7.81471 16.2575 8.75011 16.6532 9.66988 15.9596C10.7136 15.1722 11.7938 14.4378 12.9146 13.7595C13.2073 13.5841 13.6229 13.6178 13.801 13.2577Z" fill="#ADC959"/>
<path d="M15.6217 16.169C15.5311 15.7478 15.8124 15.6029 16.1238 15.3938C17.829 14.2494 19.6029 13.2274 21.482 12.3829C21.8174 12.2319 22.1341 12.1187 22.4726 12.3533C23.0976 13.6517 23.9215 14.8369 24.658 16.0721C25.5538 17.5746 26.4871 19.0545 27.3985 20.5488C27.5256 20.7569 27.6412 20.9772 27.7194 21.2067C28.0923 22.292 27.6464 22.909 26.4808 22.9243C24.7413 22.9478 23.0007 22.9539 21.2612 22.9866C20.332 23.0039 19.6602 22.6622 19.1727 21.8585C18.0144 19.948 16.8082 18.0641 15.6217 16.169Z" fill="white"/>
<path d="M1.53819 18.7923C1.72985 18.7882 1.89547 18.8188 1.99964 19.0126C2.44859 19.8439 2.93399 20.6528 3.55377 21.377C3.66731 21.5096 3.5871 21.6432 3.57877 21.7778C3.24857 22.2623 2.94961 22.7866 2.31317 22.9477C1.65173 23.115 0.905914 22.8712 0.537173 22.3612C0.101767 21.7584 0.19239 21.1301 0.523632 20.5243C0.843416 19.9367 1.19862 19.3686 1.53819 18.7923Z" fill="white"/>
</svg>
