<svg width="70" height="70" viewBox="0 0 70 70" fill="none" xmlns="http://www.w3.org/2000/svg">
<path opacity="0.103585" d="M35 70C54.33 70 70 54.33 70 35C70 15.67 54.33 0 35 0C15.67 0 0 15.67 0 35C0 54.33 15.67 70 35 70Z" fill="#0C2556"/>
<g clip-path="url(#clip0)">
<path d="M49.8875 45.2663H48.8608V44.753C48.8581 44.1027 48.4473 43.5242 47.8342 43.3074V32.8519C48.4473 32.6352 48.8581 32.0566 48.8608 31.4064V30.893C49.7113 30.893 50.4008 30.2036 50.4008 29.3531C50.4008 28.5025 49.7113 27.8131 48.8608 27.8131H48.4928L35.2699 19.6757C35.1049 19.5742 34.8969 19.5742 34.7319 19.6757L21.509 27.8131H21.1409C20.2904 27.8131 19.601 28.5025 19.601 29.3531C19.601 30.2036 20.2904 30.893 21.1409 30.893V31.4064C21.1436 32.0566 21.5545 32.6352 22.1676 32.8519V43.3074C21.5545 43.5242 21.1436 44.1027 21.1409 44.753V45.2663H20.1143C19.8308 45.2663 19.601 45.4961 19.601 45.7796V49.8863C19.601 50.1698 19.8308 50.3996 20.1143 50.3996H49.8875C50.171 50.3996 50.4008 50.1698 50.4008 49.8863V45.7796C50.4008 45.4961 50.171 45.2663 49.8875 45.2663ZM47.8342 31.4064C47.8342 31.6899 47.6043 31.9197 47.3208 31.9197H45.2675C44.984 31.9197 44.7542 31.6899 44.7542 31.4064V30.893H47.8342V31.4064ZM47.3208 44.2396C47.6043 44.2396 47.8342 44.4695 47.8342 44.753V45.2663H44.7542V44.753C44.7542 44.4695 44.984 44.2396 45.2675 44.2396H47.3208ZM45.7808 43.213V32.9464H46.8075V43.213H45.7808ZM21.1409 29.8664C20.8575 29.8664 20.6276 29.6365 20.6276 29.3531C20.6276 29.0696 20.8575 28.8397 21.1409 28.8397H24.7343V27.8131H23.4679L35.0009 20.7158L46.5339 27.8131H27.8142V28.8397H48.8608C49.1443 28.8397 49.3741 29.0696 49.3741 29.3531C49.3741 29.6365 49.1443 29.8664 48.8608 29.8664H21.1409ZM31.4076 43.3074V32.8519C32.0207 32.6352 32.4315 32.0566 32.4342 31.4064V30.893H37.5675V31.4064C37.5702 32.0566 37.9811 32.6352 38.5942 32.8519V43.3074C37.9811 43.5242 37.5702 44.1027 37.5675 44.753V45.2663H32.4342V44.753C32.4315 44.1027 32.0207 43.5242 31.4076 43.3074ZM30.8942 44.2396C31.1777 44.2396 31.4076 44.4695 31.4076 44.753V45.2663H28.3276V44.753C28.3276 44.4695 28.5574 44.2396 28.8409 44.2396H30.8942ZM29.3542 43.213V32.9464H30.3809V43.213H29.3542ZM30.8942 31.9197H28.8409C28.5574 31.9197 28.3276 31.6899 28.3276 31.4064V30.893H31.4076V31.4064C31.4076 31.6899 31.1777 31.9197 30.8942 31.9197ZM38.5942 44.753C38.5942 44.4695 38.824 44.2396 39.1075 44.2396H41.1609C41.4443 44.2396 41.6742 44.4695 41.6742 44.753V45.2663H38.5942V44.753ZM39.6209 43.213V32.9464H40.6475V43.213H39.6209ZM41.1609 31.9197H39.1075C38.824 31.9197 38.5942 31.6899 38.5942 31.4064V30.893H41.6742V31.4064C41.6742 31.6899 41.4443 31.9197 41.1609 31.9197ZM22.6809 31.9197C22.3975 31.9197 22.1676 31.6899 22.1676 31.4064V30.893H25.2476V31.4064C25.2476 31.6899 25.0177 31.9197 24.7343 31.9197H22.6809ZM24.2209 32.9464V43.213H23.1943V32.9464H24.2209ZM22.1676 44.753C22.1676 44.4695 22.3975 44.2396 22.6809 44.2396H24.7343C25.0177 44.2396 25.2476 44.4695 25.2476 44.753V45.2663H22.1676V44.753ZM26.2743 49.3729H20.6276V46.293H26.2743V49.3729ZM25.2476 43.3074V32.8519C25.8607 32.6352 26.2716 32.0566 26.2743 31.4064V30.893H27.3009V31.4064C27.3036 32.0566 27.7145 32.6352 28.3276 32.8519V43.3074C27.7145 43.5242 27.3036 44.1027 27.3009 44.753V45.2663H26.2743V44.753C26.2716 44.1027 25.8607 43.5242 25.2476 43.3074ZM42.7008 49.3729H27.3009V48.3463H39.6209V47.3196H27.3009V46.293H42.7008V49.3729ZM41.6742 43.3074V32.8519C42.2873 32.6352 42.6982 32.0566 42.7008 31.4064V30.893H43.7275V31.4064C43.7302 32.0566 44.1411 32.6352 44.7542 32.8519V43.3074C44.1411 43.5242 43.7302 44.1027 43.7275 44.753V45.2663H42.7008V44.753C42.6982 44.1027 42.2873 43.5242 41.6742 43.3074ZM49.3741 49.3729H43.7275V46.293H49.3741V49.3729Z" fill="#164194"/>
<path d="M41.6733 47.3203H40.6466V48.347H41.6733V47.3203Z" fill="#8EAADF"/>
<path d="M26.7867 27.8135H25.76V28.8401H26.7867V27.8135Z" fill="#8EAADF"/>
<path d="M35 22.6802C33.866 22.6802 32.9467 23.5995 32.9467 24.7335C32.9467 25.8675 33.866 26.7868 35 26.7868C36.134 26.7868 37.0533 25.8675 37.0533 24.7335C37.0533 23.5995 36.134 22.6802 35 22.6802ZM35 25.7602C34.4329 25.7602 33.9733 25.3005 33.9733 24.7335C33.9733 24.1665 34.4329 23.7068 35 23.7068C35.567 23.7068 36.0266 24.1665 36.0266 24.7335C36.0266 25.3005 35.567 25.7602 35 25.7602Z" fill="#8EAADF"/>
</g>
<defs>
<clipPath id="clip0">
<rect width="30.8" height="30.8" fill="white" transform="translate(19.6 19.6001)"/>
</clipPath>
</defs>
</svg>
