<svg width="40" height="40" viewBox="0 0 40 40" fill="none" xmlns="http://www.w3.org/2000/svg">
<g id="Profile step">
<path id="Oval" opacity="0.0998419" d="M20 40C31.0457 40 40 31.0457 40 20C40 8.9543 31.0457 0 20 0C8.9543 0 0 8.9543 0 20C0 31.0457 8.9543 40 20 40Z" fill="#657EAE"/>
<g id="money">
<path id="Shape" fill-rule="evenodd" clip-rule="evenodd" d="M25.2543 18.5108C25.2545 18.5125 25.2546 18.5142 25.2548 18.5158C25.2566 18.5309 25.2576 18.5459 25.2579 18.5608C25.2579 18.562 25.258 18.5632 25.2581 18.5644C25.2583 18.5658 25.2584 18.5672 25.2584 18.5687V23.9863C25.2584 24.1414 25.1788 24.2857 25.0475 24.3683L22.6992 25.847C22.6259 25.8932 22.5424 25.9165 22.4587 25.9165C22.3836 25.9165 22.3085 25.8978 22.2405 25.8603C22.0966 25.7808 22.0072 25.6294 22.0072 25.465V20.3101L15.1598 16.4179L11.3302 18.8294L17.7504 22.4788L20.8637 20.5183C21.0747 20.3854 21.3535 20.4488 21.4863 20.6598C21.6192 20.8708 21.5558 21.1496 21.3448 21.2824L18.0028 23.3869C17.9294 23.433 17.8459 23.4563 17.7622 23.4563C17.6854 23.4563 17.6084 23.4367 17.5392 23.3973L10.2284 19.2417C10.0903 19.1632 10.0037 19.0181 10.0001 18.8594C9.99651 18.7007 10.0766 18.5517 10.2109 18.4672L14.9074 15.5098L14.9106 15.5078L17.2558 14.031L17.2587 14.0292L21.952 11.0738C22.0928 10.9852 22.271 10.9811 22.4156 11.0634L29.7264 15.219C29.8645 15.2974 29.9511 15.4425 29.9547 15.6013C29.9583 15.76 29.8782 15.9089 29.7439 15.9935L26.4018 18.0979C26.1908 18.2308 25.9121 18.1674 25.7793 17.9564C25.6464 17.7455 25.7097 17.4667 25.9207 17.3338L28.6246 15.6312L22.2045 11.9819L18.3749 14.3934L25.0261 18.1741C25.0434 18.1837 25.06 18.1948 25.0761 18.2068C25.0792 18.2091 25.0822 18.2115 25.0853 18.2138C25.0973 18.2233 25.1088 18.2333 25.1199 18.244C25.1208 18.2448 25.1217 18.2457 25.1226 18.2465C25.1242 18.248 25.1258 18.2495 25.1274 18.2511C25.1402 18.2639 25.1524 18.2775 25.1636 18.2921C25.165 18.2939 25.1662 18.2959 25.1676 18.2977C25.175 18.3076 25.1823 18.3176 25.189 18.3282C25.1906 18.3309 25.1919 18.3336 25.1935 18.3363C25.1959 18.3402 25.198 18.3442 25.2002 18.3482C25.2008 18.3492 25.2013 18.3502 25.2019 18.3512C25.2082 18.3627 25.214 18.3743 25.2193 18.3862C25.2213 18.3908 25.2234 18.3953 25.2253 18.4C25.2319 18.4164 25.2378 18.4329 25.2424 18.4497L25.2426 18.4503C25.2475 18.4683 25.251 18.4865 25.2536 18.5047C25.2539 18.5067 25.2541 18.5088 25.2543 18.5108ZM22.9101 20.0474V24.6473L24.3554 23.7371V19.3865L23.8471 19.7066C23.7724 19.7536 23.6892 19.7761 23.607 19.7761C23.457 19.7761 23.3103 19.7014 23.2245 19.5651C23.0917 19.3541 23.155 19.0753 23.366 18.9425L23.9282 18.5886L17.508 14.9392L16.0266 15.8721L22.6817 19.655C22.8229 19.7352 22.9101 19.885 22.9101 20.0474Z" fill="#657EAE"/>
<path id="Path" d="M29.263 17.0353L25.9209 19.1398C25.7099 19.2726 25.6466 19.5514 25.7795 19.7623C25.8652 19.8987 26.0119 19.9733 26.1619 19.9733C26.2441 19.9733 26.3274 19.9509 26.402 19.9038L29.7441 17.7994C29.9551 17.6666 30.0184 17.3878 29.8855 17.1768C29.7527 16.9658 29.4739 16.9024 29.263 17.0353Z" fill="#657EAE"/>
<path id="Path_2" d="M20.8638 22.3242L17.7504 24.2847L10.6746 20.2627C10.458 20.1395 10.1823 20.2152 10.0591 20.4321C9.93585 20.6488 10.0117 20.9244 10.2284 21.0476L17.5392 25.2032C17.6085 25.2426 17.6854 25.2622 17.7623 25.2622C17.846 25.2622 17.9295 25.239 18.0028 25.1928L21.3449 23.0883C21.5559 22.9555 21.6192 22.6767 21.4864 22.4657C21.3536 22.2547 21.0748 22.1913 20.8638 22.3242Z" fill="#657EAE"/>
<path id="Path_3" d="M29.263 18.841L25.9209 20.9454C25.7099 21.0783 25.6466 21.357 25.7795 21.568C25.8652 21.7043 26.0119 21.779 26.1619 21.779C26.2441 21.779 26.3274 21.7565 26.402 21.7095L29.7441 19.6051C29.9551 19.4723 30.0184 19.1935 29.8855 18.9825C29.7527 18.7714 29.4739 18.7081 29.263 18.841Z" fill="#657EAE"/>
<path id="Path_4" d="M20.8638 24.1301L17.7504 26.0906L10.6746 22.0686C10.458 21.9454 10.1823 22.0211 10.0591 22.238C9.93585 22.4547 10.0117 22.7303 10.2284 22.8535L17.5392 27.0091C17.6085 27.0485 17.6854 27.0681 17.7623 27.0681C17.846 27.0681 17.9295 27.0449 18.0028 26.9987L21.3449 24.8942C21.5559 24.7614 21.6192 24.4826 21.4864 24.2716C21.3536 24.0605 21.0748 23.9972 20.8638 24.1301Z" fill="#657EAE"/>
<path id="Path_5" d="M29.263 20.6469L25.9209 22.7513C25.7099 22.8841 25.6466 23.1629 25.7795 23.3739C25.8652 23.5102 26.0119 23.5849 26.1619 23.5849C26.2441 23.5849 26.3274 23.5624 26.402 23.5154L29.7441 21.4109C29.9551 21.2781 30.0184 20.9993 29.8855 20.7884C29.7527 20.5774 29.4739 20.514 29.263 20.6469Z" fill="#657EAE"/>
<path id="Path_6" d="M20.8638 25.9358L17.7504 27.8962L10.6746 23.8742C10.458 23.7511 10.1823 23.8267 10.0591 24.0436C9.93585 24.2604 10.0117 24.536 10.2284 24.6592L17.5392 28.8148C17.6085 28.8542 17.6854 28.8738 17.7623 28.8738C17.846 28.8738 17.9295 28.8505 18.0028 28.8044L21.3449 26.6999C21.5559 26.5671 21.6192 26.2883 21.4864 26.0773C21.3536 25.8663 21.0748 25.8029 20.8638 25.9358Z" fill="#657EAE"/>
</g>
</g>
</svg>
