<svg width="40" height="40" viewBox="0 0 40 40" fill="none" xmlns="http://www.w3.org/2000/svg">
<g id="Profile step">
<path id="Oval" opacity="0.103585" d="M20 40C31.0457 40 40 31.0457 40 20C40 8.9543 31.0457 0 20 0C8.9543 0 0 8.9543 0 20C0 31.0457 8.9543 40 20 40Z" fill="#657EAE"/>
<path id="Combined Shape" fill-rule="evenodd" clip-rule="evenodd" d="M30 17.5699C30 17.4863 29.9796 17.4067 29.9346 17.3351L26.9595 12.2427C26.8737 12.0955 26.7103 12 26.5345 12H13.4614C13.2857 12 13.1222 12.0915 13.0364 12.2427L10.0654 17.3351C10.0245 17.4067 10 17.4863 10 17.5699C10 18.7117 10.707 19.6904 11.7164 20.124V28.5226C11.7164 28.7852 11.9371 29 12.2068 29H14.9162H14.9285H18.7291H18.7413H27.7891C28.0588 29 28.2795 28.7852 28.2795 28.5226V20.1837V20.1837C28.2795 20.1638 28.2795 20.1479 28.2754 20.132C29.2889 19.6983 30 18.7157 30 17.5699ZM13.7474 12.9588H26.2485L28.5738 16.9413H11.4262L13.7474 12.9588ZM22.3784 19.4039C23.3061 19.4039 24.0785 18.7515 24.2338 17.8921H20.5231C20.6784 18.7515 21.4508 19.4039 22.3784 19.4039ZM19.481 17.8921C19.3257 18.7515 18.5533 19.4039 17.6257 19.4039C16.698 19.4039 15.9256 18.7515 15.7662 17.8921H19.481ZM14.7282 17.8921H11.0135C11.1688 18.7515 11.9412 19.4079 12.8688 19.4039C13.7965 19.4039 14.5729 18.7515 14.7282 17.8921ZM18.2387 28.0452H15.4189V22.893C15.4189 22.5191 15.7295 22.2127 16.1177 22.2127H17.5439C17.9281 22.2127 18.2427 22.5151 18.2427 22.893V28.0452H18.2387ZM19.2195 28.0452H27.2987V20.3588C27.2701 20.3588 27.2425 20.3598 27.215 20.3608C27.1874 20.3617 27.1598 20.3627 27.1312 20.3627C26.1422 20.3627 25.2677 19.8734 24.7528 19.1294C24.2378 19.8734 23.3674 20.3627 22.3784 20.3627C21.3935 20.3627 20.519 19.8734 20.0041 19.1294C19.4851 19.8734 18.6146 20.3627 17.6257 20.3627C16.6367 20.3627 15.7622 19.8734 15.2472 19.1294C14.7323 19.8734 13.8578 20.3627 12.8688 20.3627C12.8116 20.3627 12.7544 20.3627 12.6972 20.3588V28.0491H14.434V22.893C14.434 21.9899 15.19 21.2579 16.1136 21.2579H17.5398C18.4675 21.2579 19.2195 21.9939 19.2195 22.893V28.0452ZM27.1312 19.4079C26.2035 19.4079 25.4311 18.7554 25.2758 17.8961H28.9906C28.8312 18.7515 28.0588 19.4079 27.1312 19.4079ZM24.2092 21.2579H21.4916C20.7479 21.2579 20.143 21.8467 20.143 22.5708V24.5998C20.143 25.3239 20.7479 25.9127 21.4916 25.9127H24.2092C24.953 25.9127 25.5578 25.3239 25.5578 24.5998V22.5708C25.5578 21.8467 24.953 21.2579 24.2092 21.2579ZM24.577 24.5998C24.577 24.7987 24.4095 24.9579 24.2092 24.9579H21.4916C21.2873 24.9579 21.1238 24.7948 21.1238 24.5998V22.5708C21.1238 22.3719 21.2914 22.2127 21.4916 22.2127H24.2092C24.4136 22.2127 24.577 22.3758 24.577 22.5708V24.5998Z" fill="#657EAE"/>
</g>
</svg>
