<svg width="26" height="25" viewBox="0 0 26 25" fill="none" xmlns="http://www.w3.org/2000/svg">
<path d="M20.6915 25H4.93571C2.32498 25 0.208984 22.9016 0.208984 20.3125V4.6875C0.208984 2.09844 2.32498 0 4.93571 0H20.6915C23.3022 0 25.4182 2.09844 25.4182 4.6875V20.3125C25.4182 22.9016 23.3022 25 20.6915 25Z" fill="white" fill-opacity="0.35"/>
<path d="M11.2045 18H7.79542C7.3568 18 7 17.6075 7 17.125V14.8751C7 14.3925 7.3568 14 7.79542 14H11.2045C11.6432 14 12 14.3925 12 14.8751V17.125C12 17.6075 11.6432 18 11.2045 18Z" fill="#D0D7E6"/>
<path d="M11.2045 13H7.79542C7.3568 13 7 12.6636 7 12.25V7.74997C7 7.33642 7.3568 7 7.79542 7H11.2045C11.6432 7 12 7.33642 12 7.74997V12.25C12 12.6636 11.6432 13 11.2045 13Z" fill="#D0D7E6"/>
<path d="M17.2046 11H13.7955C13.3568 11 13 10.6075 13 10.1249V7.87496C13 7.39248 13.3568 7 13.7955 7H17.2046C17.6432 7 18 7.39248 18 7.87496V10.1249C18 10.6075 17.6432 11 17.2046 11Z" fill="#D0D7E6"/>
<path d="M17.2046 18H13.7955C13.3568 18 13 17.6636 13 17.25V12.75C13 12.3364 13.3568 12 13.7955 12H17.2046C17.6432 12 18 12.3364 18 12.75V17.25C18 17.6636 17.6432 18 17.2046 18V18Z" fill="#D0D7E6"/>
</svg>
