<svg width="29" height="28" viewBox="0 0 29 28" fill="none" xmlns="http://www.w3.org/2000/svg">
<g clip-path="url(#clip0)">
<path d="M14.209 0.000976562C6.47781 0.000976562 0.208984 6.26857 0.208984 14.0004C0.208984 21.7322 6.47719 27.9997 14.209 27.9997C21.9414 27.9997 28.209 21.7322 28.209 14.0004C28.209 6.26857 21.9414 0.000976562 14.209 0.000976562ZM14.209 4.18696C16.7672 4.18696 18.8402 6.26057 18.8402 8.81754C18.8402 11.3751 16.7672 13.4481 14.209 13.4481C11.652 13.4481 9.57901 11.3751 9.57901 8.81754C9.57901 6.26057 11.652 4.18696 14.209 4.18696ZM14.2059 24.3396C11.6545 24.3396 9.31765 23.4104 7.51523 21.8724C7.07615 21.4979 6.82279 20.9487 6.82279 20.3725C6.82279 17.7792 8.92163 15.7038 11.5155 15.7038H16.9037C19.4982 15.7038 21.589 17.7792 21.589 20.3725C21.589 20.9493 21.3369 21.4972 20.8972 21.8717C19.0954 23.4104 16.758 24.3396 14.2059 24.3396Z" fill="white"/>
</g>
<defs>
<clipPath id="clip0">
<rect width="28" height="28" fill="white" transform="translate(0.208984)"/>
</clipPath>
</defs>
</svg>
