<svg width="24" height="22" viewBox="0 0 24 22" fill="none" xmlns="http://www.w3.org/2000/svg">
<path d="M22.036 4.06918L20.2716 5.83417C20.2716 5.83417 19.0947 6.42229 17.9185 5.24541C16.7416 4.06918 17.3298 2.89231 17.3298 2.89231L19.0947 1.12733C19.6835 0.539212 18.9763 0 18.4455 0C15.8389 0 13.7264 2.11245 13.7264 4.71843C13.7264 5.08455 13.7728 5.43973 13.8513 5.78205L9.8625 9.7708L13.3918 13.3001L17.3806 9.31202C17.7235 9.39052 18.0781 9.43685 18.4449 9.43685C21.0508 9.43685 23.1633 7.3244 23.1633 4.71843C23.1639 4.18436 22.6241 3.48107 22.036 4.06918ZM9.79301 9.88598L1.94999 17.7284C0.988026 18.691 0.988026 20.2513 1.94999 21.2139C2.91323 22.1759 4.47296 22.1759 5.43556 21.2139L13.2773 13.3716L9.79301 9.88598ZM3.70789 20.4862C3.18091 20.4862 2.7543 20.0589 2.7543 19.5326C2.7543 19.0063 3.18155 18.5784 3.70789 18.5784C4.23488 18.5784 4.66149 19.0056 4.66149 19.5326C4.66149 20.0589 4.23488 20.4862 3.70789 20.4862Z" fill="#8899A6"/>
<path d="M19.8386 21.4137C20.5889 22.1639 21.7831 22.1993 22.4903 21.4915C23.1981 20.7837 23.1627 19.5901 22.4124 18.8398L7.44256 3.86996C6.69165 3.11905 5.49869 3.08431 4.79089 3.7921C4.0831 4.4999 4.11849 5.6935 4.86875 6.44376L19.8386 21.4137Z" fill="#F4900C"/>
<path d="M13.7985 0.574808C13.7985 0.574808 9.93774 -1.35554 6.72049 1.86171L2.21633 6.36587C2.21633 6.36587 1.57288 5.72242 0.929429 6.36587L0.285978 7.00932C0.285978 7.00932 -0.357473 7.65277 0.285978 8.29622L2.85978 10.87C2.85978 10.87 3.50323 11.5135 4.14668 10.87L4.79014 10.2266C4.79014 10.2266 5.43359 9.58312 4.79014 8.93967L4.73995 8.88948C5.2354 8.4114 5.9773 7.9243 6.72049 8.29622L9.29429 5.72242C9.29429 5.72242 8.65084 3.79206 9.93774 2.50516C11.2246 1.21826 11.8681 1.21826 13.155 1.21826C14.4419 1.21826 13.7985 0.574808 13.7985 0.574808Z" fill="#66757F"/>
</svg>
