<svg width="42" height="42" viewBox="0 0 42 42" fill="none" xmlns="http://www.w3.org/2000/svg">
<rect opacity="0.154157" x="1" y="1" width="40" height="40" rx="20" stroke="#657EAE"/>
<path fill-rule="evenodd" clip-rule="evenodd" d="M21 31C26.5455 31 31 26.5455 31 21C31 15.4545 26.5455 11 21 11C15.4545 11 11 15.4545 11 21C11 26.5455 15.4545 31 21 31ZM21.1818 22.7273C21.5454 22.6364 24.5453 21.5455 24.5453 19.1818C24.5453 17.6364 23.5454 16.2727 22.0908 15.8182C20.1818 15.0909 18.0909 16.0909 17.4545 18C17.3636 18.4545 17.5455 19 18 19C18.4545 19.1818 19 18.9091 19.1818 18.4545C19.5454 17.5455 20.6363 17 21.5454 17.3636C22.2727 17.6364 22.7272 18.2727 22.7272 19.0909C22.7272 20.0909 21.1818 20.8182 20.6363 21C20.1818 21.1818 19.9091 21.7273 20.0909 22.1818C20.1818 22.5455 20.5454 22.8182 20.909 22.8182C20.9999 22.8182 21.0909 22.8182 21.1818 22.7273ZM29.182 21C29.182 16.4545 25.5456 12.8182 21.0001 12.8182C16.4546 12.8182 12.8182 16.4545 12.8182 21C12.8182 25.5455 16.4546 29.1818 21.0001 29.1818C25.5456 29.1818 29.182 25.5455 29.182 21ZM21.4545 24.8182C21.5455 24.8182 21.6364 24.9091 21.6364 24.9091C21.7273 25 21.8182 25.0909 21.7273 25.1818C21.8182 25.2727 21.8182 25.4545 21.8182 25.5455C21.8182 25.8182 21.7273 26 21.5455 26.1818C21.3636 26.3636 21.1818 26.4545 20.9091 26.4545C20.6364 26.4545 20.4545 26.3636 20.2727 26.1818C20.0909 26 20 25.8182 20 25.5455C20 25.4389 20.0312 25.3636 20.057 25.3012C20.0753 25.2571 20.0909 25.2195 20.0909 25.1818C20.0909 25.0909 20.1818 25 20.2727 24.9091C20.3636 24.8182 20.4545 24.7273 20.5455 24.7273C20.7273 24.6364 20.9091 24.6364 21.0909 24.6364C21.1432 24.6886 21.1654 24.7109 21.1921 24.7203C21.2119 24.7273 21.2341 24.7273 21.2727 24.7273C21.3182 24.7273 21.3409 24.75 21.3636 24.7727C21.3864 24.7955 21.4091 24.8182 21.4545 24.8182Z" fill="#0C2556"/>
</svg>
