<svg width="26" height="25" viewBox="0 0 26 25" fill="none" xmlns="http://www.w3.org/2000/svg">
<path d="M20.4825 25H4.72673C2.116 25 0 22.9016 0 20.3125V4.6875C0 2.09844 2.116 0 4.72673 0H20.4825C23.0932 0 25.2092 2.09844 25.2092 4.6875V20.3125C25.2092 22.9016 23.0932 25 20.4825 25Z" fill="#657EAE"/>
<g clip-path="url(#clip0)">
<path d="M16.945 14.606V10.3066C16.945 10.1731 16.8267 10.0808 16.682 10.0808H15.6642C15.5196 10.0808 15.3934 10.1731 15.3934 10.3066V14.186C15.225 14.1909 15.0567 14.2103 14.8937 14.2467V11.5738C14.8937 11.4403 14.77 11.3432 14.6254 11.3432H13.6076C13.4629 11.3432 13.342 11.4379 13.342 11.5738V15.1984C13.029 15.6038 12.8607 16.0917 12.8633 16.5918C12.8633 17.9222 14.031 19.0001 15.4696 19.0001C16.9109 19.0001 18.0786 17.9222 18.0786 16.5943C18.0786 15.798 17.6551 15.0551 16.945 14.606ZM15.9194 10.5663H16.419V14.3487C16.2586 14.2904 16.0903 14.2467 15.9194 14.2224V10.5663ZM13.868 11.8287H14.3677V14.4142C14.1915 14.4895 14.0231 14.5817 13.868 14.691V11.8287ZM17.2633 17.5702C16.8872 18.1553 16.206 18.5121 15.4723 18.5121C14.323 18.5121 13.3919 17.6503 13.3919 16.5918C13.3919 15.815 13.8995 15.1134 14.678 14.8172C14.7096 14.8123 14.7385 14.8002 14.7648 14.7856C14.991 14.708 15.2329 14.6691 15.4749 14.6691C15.5301 14.6691 15.5827 14.6715 15.6379 14.6764H15.6406C15.9562 14.6982 16.2639 14.7881 16.5348 14.9386C17.5236 15.48 17.8498 16.6574 17.2633 17.5702Z" fill="#D0D7E6"/>
<path d="M15.4749 16.3951C15.2908 16.3951 15.1435 16.2592 15.1435 16.0892C15.1435 15.9193 15.2882 15.7834 15.4723 15.7809C15.6564 15.7809 15.8036 15.9193 15.8036 16.0868C15.8036 16.2203 15.922 16.3296 16.0666 16.3296C16.2139 16.3296 16.3323 16.2228 16.3349 16.0868C16.3349 15.7615 16.1192 15.4678 15.7905 15.3488V15.1473C15.7905 15.0138 15.6721 14.9045 15.5275 14.9045C15.3829 14.9045 15.2645 15.0138 15.2645 15.1473V15.3221C14.8069 15.4313 14.5307 15.8635 14.6491 16.2859C14.7438 16.6355 15.083 16.8782 15.4723 16.8782C15.6537 16.8782 15.801 17.0166 15.801 17.1841C15.801 17.3516 15.6511 17.4876 15.4696 17.4876C15.2882 17.4876 15.1409 17.3492 15.1409 17.1817C15.1409 17.0482 15.0225 16.9389 14.8779 16.9389C14.7332 16.9389 14.6175 17.0458 14.6202 17.1793V17.1817C14.6228 17.541 14.8858 17.8566 15.2619 17.9464V18.0557C15.2619 18.1892 15.3802 18.2984 15.5249 18.2984C15.6695 18.2984 15.7879 18.1892 15.7879 18.0557V17.9221C16.2297 17.7619 16.4454 17.3031 16.2744 16.8977C16.1455 16.5942 15.8273 16.3951 15.4749 16.3951Z" fill="#D0D7E6"/>
<path d="M10.5016 13.2852H9.47589C9.33124 13.2852 9.21289 13.3944 9.21289 13.5279V17.3394C9.21289 17.4729 9.33124 17.5821 9.47589 17.5821H10.5016C10.6462 17.5821 10.7646 17.4729 10.7646 17.3394V13.5279C10.7646 13.3944 10.6462 13.2852 10.5016 13.2852ZM10.2386 17.1209H9.73889V13.7707H10.2386V17.1209Z" fill="#D0D7E6"/>
<path d="M12.5787 12.7268H11.553C11.4084 12.7268 11.29 12.8361 11.29 12.9696V17.3637C11.29 17.4972 11.4084 17.6064 11.553 17.6064H12.5787C12.7234 17.6064 12.8417 17.4972 12.8417 17.3637V12.9696C12.8417 12.8361 12.7234 12.7268 12.5787 12.7268ZM12.3157 17.1209H11.816V13.2123H12.3157V17.1209Z" fill="#D0D7E6"/>
<path d="M8.42345 15.373H7.39776C7.25311 15.373 7.13477 15.4823 7.13477 15.6158V17.3395C7.13477 17.473 7.25311 17.5822 7.39776 17.5822H8.42345C8.5681 17.5822 8.68645 17.473 8.68645 17.3395V15.6158C8.68645 15.4823 8.5681 15.373 8.42345 15.373ZM8.16046 17.121H7.66076V15.8586H8.16046V17.121Z" fill="#D0D7E6"/>
<path d="M16.905 7L15.1061 7.00243C14.9614 7 14.8431 7.10925 14.8404 7.24277C14.8378 7.37629 14.9562 7.48554 15.1008 7.48796C15.1034 7.48796 15.1034 7.48796 15.1061 7.48796L16.2711 7.48554L13.4176 10.1099L12.4208 9.19705C12.3709 9.15335 12.3025 9.1315 12.2341 9.13393C12.1657 9.1315 12.0974 9.15335 12.0474 9.19705L6.99783 13.8582C6.89526 13.9529 6.89526 14.1058 6.99783 14.1981C7.0478 14.2442 7.11354 14.2685 7.18455 14.2685C7.25556 14.2685 7.32131 14.2442 7.37128 14.1981L12.2367 9.70686L13.2335 10.6342C13.2809 10.6828 13.3492 10.7095 13.4202 10.7119C13.4913 10.7095 13.557 10.6804 13.607 10.6342L16.642 7.83027L16.6393 8.91058C16.6393 9.04653 16.7551 9.15578 16.9023 9.16063C17.0496 9.1582 17.1653 9.04653 17.1653 8.91058L17.168 7.2452C17.168 7.11167 17.0496 7 16.905 7Z" fill="#D0D7E6"/>
</g>
<defs>
<clipPath id="clip0">
<rect width="13" height="12" fill="white" transform="translate(6 7)"/>
</clipPath>
</defs>
</svg>
