<svg width="34" height="34" viewBox="0 0 34 34" fill="none" xmlns="http://www.w3.org/2000/svg">
<path id="Shape" fill-rule="evenodd" clip-rule="evenodd" d="M0 17C0 7.6109 7.6109 0 17 0C26.3891 0 34 7.6109 34 17C34 26.3891 26.3891 34 17 34C7.6109 34 0 26.3891 0 17ZM14.0981 10.9876L20.1076 16.9988L14.0981 23.01C13.4538 23.6771 13.463 24.7374 14.1188 25.3931C14.7745 26.0489 15.8348 26.0581 16.5019 25.4138L23.715 18.2007C24.3786 17.5369 24.3786 16.4608 23.715 15.7969L16.5019 8.58384C15.8348 7.93959 14.7745 7.9488 14.1188 8.60455C13.463 9.2603 13.4538 10.3206 14.0981 10.9876Z" fill="#ADC959"/>
</svg>
