<svg width="26" height="25" viewBox="0 0 26 25" fill="none" xmlns="http://www.w3.org/2000/svg">
<path d="M20.57 25H4.74693C2.12504 25 0 22.9016 0 20.3125V4.6875C0 2.09844 2.12504 0 4.74693 0H20.57C23.1919 0 25.317 2.09844 25.317 4.6875V20.3125C25.317 22.9016 23.1919 25 20.57 25Z" fill="white" fill-opacity="0.35"/>
<path d="M14.4462 14.7842C14.3591 14.9861 14.1006 15.0883 13.8691 15.0124C13.5119 14.8953 13.1353 14.8359 12.7497 14.8359H12.0776C10.3234 14.8359 8.89618 16.0801 8.89618 17.6094C8.89618 17.8251 8.69557 18 8.44809 18C8.20061 18 8 17.8251 8 17.6094C8 15.6493 9.82921 14.0547 12.0776 14.0547H12.7497C13.2434 14.0547 13.7261 14.1309 14.1845 14.2811C14.4161 14.357 14.5333 14.5822 14.4462 14.7842ZM15.3934 10.6367C15.3934 12.0906 14.0366 13.2734 12.3689 13.2734C10.7011 13.2734 9.34426 12.0906 9.34426 10.6367C9.34426 9.18283 10.7011 8 12.3689 8C14.0366 8 15.3934 9.18283 15.3934 10.6367ZM14.4973 10.6367C14.4973 9.61361 13.5425 8.78125 12.3689 8.78125C11.1952 8.78125 10.2404 9.61361 10.2404 10.6367C10.2404 11.6598 11.1952 12.4922 12.3689 12.4922C13.5425 12.4922 14.4973 11.6598 14.4973 10.6367ZM18.1268 16.3268C18.1268 15.7165 17.5042 15.22 16.739 15.22C16.4137 15.2201 16.1776 15.0831 16.1776 14.8945C16.1776 14.715 16.3434 14.569 16.5473 14.569C16.7528 14.569 17.0205 14.5885 17.4478 14.7334C17.6784 14.8116 17.9381 14.712 18.0278 14.5109C18.1176 14.3099 18.0033 14.0835 17.7726 14.0053C17.5502 13.9299 17.3562 13.8804 17.1858 13.8479V13.5469C17.1858 13.3311 16.9852 13.1562 16.7377 13.1562C16.4902 13.1562 16.2896 13.3311 16.2896 13.5469V13.8109C15.7148 13.9152 15.2814 14.3614 15.2814 14.8945C15.2814 15.5255 15.908 16.0013 16.739 16.0013C17.0055 16.0013 17.2306 16.1504 17.2306 16.3268C17.2306 16.5002 17.0456 16.6524 16.8348 16.6524C16.6703 16.6524 16.2575 16.5998 15.8502 16.4586C15.6203 16.379 15.3597 16.4769 15.2683 16.6773C15.1769 16.8778 15.2892 17.1049 15.5192 17.1846C15.7787 17.2746 16.0494 17.3387 16.2896 17.3794V17.6094C16.2896 17.8251 16.4902 18 16.7377 18C16.9852 18 17.1858 17.8251 17.1858 17.6094V17.3912C17.3907 17.341 17.58 17.2471 17.7378 17.1145C17.9886 16.9038 18.1268 16.624 18.1268 16.3268Z" fill="#D0D7E6"/>
</svg>
