<svg width="65" height="65" viewBox="0 0 65 65" fill="none" xmlns="http://www.w3.org/2000/svg">
<circle cx="32.5" cy="32.5" r="32.5" fill="#6D8AFF" fill-opacity="0.26"/>
<path fill-rule="evenodd" clip-rule="evenodd" d="M16 26L31.2933 34.4376C31.458 34.5284 31.6307 34.5941 31.8065 34.6357V51L17.0907 42.6779C16.4147 42.2955 16 41.6006 16 40.8499V26ZM51 26V40.9401C51 41.6842 50.5853 42.3729 49.9093 42.7519L35.1935 51V34.6392C35.2294 34.6222 35.2649 34.6041 35.3001 34.5849L51 26Z" fill="#EDF2F7"/>
<path opacity="0.3" fill-rule="evenodd" clip-rule="evenodd" d="M16 22.6296C16.1897 22.4066 16.4291 22.2182 16.7082 22.0798L32.508 14.2466C33.1713 13.9178 33.9668 13.9178 34.6301 14.2466L50.4299 22.0798C50.645 22.1864 50.8366 22.3229 51 22.4819L33.6773 31.7913C33.5634 31.8526 33.4583 31.9226 33.3626 32C33.2669 31.9226 33.1619 31.8526 33.048 31.7913L16 22.6296Z" fill="#EDF2F7"/>
</svg>
