<svg width="50" height="50" viewBox="0 0 50 50" fill="none" xmlns="http://www.w3.org/2000/svg">
<path opacity="0.103585" d="M25 50C38.8071 50 50 38.8071 50 25C50 11.1929 38.8071 0 25 0C11.1929 0 0 11.1929 0 25C0 38.8071 11.1929 50 25 50Z" fill="#0C2556"/>
<path d="M35.9999 32.0703H27.7073V17.9297H35.9999V32.0703Z" fill="#4A80AA"/>
<path d="M26.2911 35H17.456C16.0294 35 14.8657 34.0955 14.8066 32.9407L14.0024 17.2375C13.972 16.6472 14.2335 16.0873 14.7382 15.661C15.2429 15.2348 15.9226 15 16.6516 15H27.0953C27.8245 15 28.504 15.2348 29.0087 15.661C29.5136 16.0873 29.775 16.6472 29.7447 17.2374L28.9405 32.9405C28.8814 34.0955 27.7177 35 26.2911 35Z" fill="#8EAADF"/>
<path d="M29.0087 15.661C28.504 15.2348 27.8245 15 27.0952 15H21.8735V35H26.2911C27.7177 35 28.8814 34.0955 28.9405 32.9407L29.7447 17.2375C29.775 16.6472 29.5136 16.0873 29.0087 15.661Z" fill="#698ED5"/>
<path d="M20.9093 31.4844H22.8378V32.6562H20.9093V31.4844Z" fill="#0C2556"/>
<path d="M17.5344 31.4844H19.463V32.6562H17.5344V31.4844Z" fill="#0C2556"/>
<path d="M20.9093 29.1406H22.8378V30.3125H20.9093V29.1406Z" fill="#0C2556"/>
<path d="M17.5344 29.1406H19.463V30.3125H17.5344V29.1406Z" fill="#0C2556"/>
<path d="M20.9093 26.7969H22.8378V27.9688H20.9093V26.7969Z" fill="#0C2556"/>
<path d="M17.5344 26.7969H19.463V27.9688H17.5344V26.7969Z" fill="#0C2556"/>
<path d="M20.9093 24.4531H22.8378V25.625H20.9093V24.4531Z" fill="#0C2556"/>
<path d="M17.5344 24.4531H19.463V25.625H17.5344V24.4531Z" fill="#0C2556"/>
<path d="M26.5985 23.2812H17.1487V19.6875H26.5985V23.2812Z" fill="#ADC959"/>
<path d="M33.1073 29.1406C33.1073 29.4643 32.7835 29.7266 32.3841 29.7266C31.9846 29.7266 31.6609 29.4643 31.6609 29.1406C31.6609 28.817 31.9846 28.5547 32.3841 28.5547C32.7835 28.5547 33.1073 28.817 33.1073 29.1406Z" fill="#FFAB00"/>
<path d="M33.1073 27.9688C33.1073 28.2924 32.7835 28.5547 32.3841 28.5547C31.9846 28.5547 31.6609 28.2924 31.6609 27.9688C31.6609 27.6451 31.9846 27.3828 32.3841 27.3828C32.7835 27.3828 33.1073 27.6451 33.1073 27.9688Z" fill="#FF515E"/>
<path d="M17.8718 17.3438H25.8752V18.5156H17.8718V17.3438Z" fill="#0C2556"/>
<path d="M26.5984 23.2812H21.8735V19.6875H26.5984V23.2812Z" fill="#ADC959"/>
<path d="M21.8735 17.3438H25.8752V18.5156H21.8735V17.3438Z" fill="#0C2556"/>
<path d="M24.2842 31.4844H26.2127V32.6562H24.2842V31.4844Z" fill="#0C2556" fill-opacity="0.64"/>
<path d="M24.2842 29.1406H26.2127V30.3125H24.2842V29.1406Z" fill="#0C2556" fill-opacity="0.64"/>
<path d="M24.2842 26.7969H26.2127V27.9688H24.2842V26.7969Z" fill="#0C2556" fill-opacity="0.64"/>
<path d="M24.2842 24.4531H26.2127V25.625H24.2842V24.4531Z" fill="#0C2556" fill-opacity="0.64"/>
<path d="M21.8735 31.4844H22.8378V32.6562H21.8735V31.4844Z" fill="#2D4B84"/>
<path d="M21.8735 29.1406H22.8378V30.3125H21.8735V29.1406Z" fill="#2D4B84"/>
<path d="M21.8735 26.7969H22.8378V27.9688H21.8735V26.7969Z" fill="#2D4B84"/>
<path d="M21.8735 24.4531H22.8378V25.625H21.8735V24.4531Z" fill="#2D4B84"/>
</svg>
