<svg width="50" height="50" viewBox="0 0 50 50" fill="none" xmlns="http://www.w3.org/2000/svg">
<path opacity="0.103585" d="M25 50C38.8071 50 50 38.8071 50 25C50 11.1929 38.8071 0 25 0C11.1929 0 0 11.1929 0 25C0 38.8071 11.1929 50 25 50Z" fill="#0C2556"/>
<path d="M32.1328 29.125H30.2422C29.626 29.125 29.125 29.626 29.125 30.2422V32.1328C29.125 32.749 29.626 33.25 30.2422 33.25H32.1328C32.749 33.25 33.25 32.749 33.25 32.1328V30.2422C33.25 29.626 32.749 29.125 32.1328 29.125Z" fill="#657EAE"/>
<path d="M22.3359 16.75H18.7266C17.6369 16.75 16.75 17.6369 16.75 18.7266V22.3359C16.75 23.4256 17.6369 24.3125 18.7266 24.3125H22.3359C23.4256 24.3125 24.3125 23.4256 24.3125 22.3359V18.7266C24.3125 17.6369 23.4256 16.75 22.3359 16.75ZM21.5625 20.875C21.5625 21.2547 21.2547 21.5625 20.875 21.5625H20.1875C19.8078 21.5625 19.5 21.2547 19.5 20.875V20.1875C19.5 19.8078 19.8078 19.5 20.1875 19.5H20.875C21.2547 19.5 21.5625 19.8078 21.5625 20.1875V20.875Z" fill="#8EAADF"/>
<path d="M31.2734 16.75H27.6641C26.5744 16.75 25.6875 17.6369 25.6875 18.7266V22.3359C25.6875 23.4256 26.5744 24.3125 27.6641 24.3125H31.2734C32.3631 24.3125 33.25 23.4256 33.25 22.3359V18.7266C33.25 17.6369 32.3631 16.75 31.2734 16.75ZM30.5 20.875C30.5 21.2547 30.1922 21.5625 29.8125 21.5625H29.125C28.7453 21.5625 28.4375 21.2547 28.4375 20.875V20.1875C28.4375 19.8078 28.7453 19.5 29.125 19.5H29.8125C30.1922 19.5 30.5 19.8078 30.5 20.1875V20.875Z" fill="#8EAADF"/>
<path d="M22.3359 25.6875H18.7266C17.6369 25.6875 16.75 26.5744 16.75 27.6641V31.2734C16.75 32.3631 17.6369 33.25 18.7266 33.25H22.3359C23.4256 33.25 24.3125 32.3631 24.3125 31.2734V27.6641C24.3125 26.5744 23.4256 25.6875 22.3359 25.6875ZM21.5625 29.8125C21.5625 30.1922 21.2547 30.5 20.875 30.5H20.1875C19.8078 30.5 19.5 30.1922 19.5 29.8125V29.125C19.5 28.7453 19.8078 28.4375 20.1875 28.4375H20.875C21.2547 28.4375 21.5625 28.7453 21.5625 29.125V29.8125Z" fill="#8EAADF"/>
<path d="M32.1328 29.125H31.1016C31.7177 29.125 32.2188 29.626 32.2188 30.2422V32.1328C32.2188 32.749 31.7177 33.25 31.1016 33.25H32.1328C32.749 33.25 33.25 32.749 33.25 32.1328V30.2422C33.25 29.626 32.749 29.125 32.1328 29.125Z" fill="#698ED5"/>
<path d="M35.3125 20.1875C34.9328 20.1875 34.625 19.8797 34.625 19.5V15.9766C34.625 15.6448 34.3552 15.375 34.0234 15.375H30.5C30.1203 15.375 29.8125 15.0672 29.8125 14.6875C29.8125 14.3078 30.1203 14 30.5 14H34.0234C35.1133 14 36 14.8867 36 15.9766V19.5C36 19.8797 35.6922 20.1875 35.3125 20.1875Z" fill="#657EAE"/>
<path d="M14.6875 20.1875C14.3078 20.1875 14 19.8797 14 19.5V15.9766C14 14.8867 14.8867 14 15.9766 14H19.5C19.8797 14 20.1875 14.3078 20.1875 14.6875C20.1875 15.0672 19.8797 15.375 19.5 15.375H15.9766C15.6448 15.375 15.375 15.6448 15.375 15.9766V19.5C15.375 19.8797 15.0672 20.1875 14.6875 20.1875Z" fill="#657EAE"/>
<path d="M19.5 36H15.9766C14.8867 36 14 35.1133 14 34.0234V30.5C14 30.1203 14.3078 29.8125 14.6875 29.8125C15.0672 29.8125 15.375 30.1203 15.375 30.5V34.0234C15.375 34.3552 15.6448 34.625 15.9766 34.625H19.5C19.8797 34.625 20.1875 34.9328 20.1875 35.3125C20.1875 35.6922 19.8797 36 19.5 36Z" fill="#657EAE"/>
<path d="M34.0234 36H30.5C30.1203 36 29.8125 35.6922 29.8125 35.3125C29.8125 34.9328 30.1203 34.625 30.5 34.625H34.0234C34.3552 34.625 34.625 34.3552 34.625 34.0234V30.5C34.625 30.1203 34.9328 29.8125 35.3125 29.8125C35.6922 29.8125 36 30.1203 36 30.5V34.0234C36 35.1133 35.1133 36 34.0234 36Z" fill="#657EAE"/>
<path d="M22.3359 16.75H21.3047C22.3944 16.75 23.2812 17.6369 23.2812 18.7266V22.3359C23.2812 23.4256 22.3944 24.3125 21.3047 24.3125H22.3359C23.4256 24.3125 24.3125 23.4256 24.3125 22.3359V18.7266C24.3125 17.6369 23.4256 16.75 22.3359 16.75Z" fill="#657EAE"/>
<path d="M31.2734 16.75H30.2422C31.3319 16.75 32.2188 17.6369 32.2188 18.7266V22.3359C32.2188 23.4256 31.3319 24.3125 30.2422 24.3125H31.2734C32.3631 24.3125 33.25 23.4256 33.25 22.3359V18.7266C33.25 17.6369 32.3631 16.75 31.2734 16.75Z" fill="#657EAE"/>
<path d="M22.3359 25.6875H21.3047C22.3944 25.6875 23.2812 26.5744 23.2812 27.6641V31.2734C23.2812 32.3631 22.3944 33.25 21.3047 33.25H22.3359C23.4256 33.25 24.3125 32.3631 24.3125 31.2734V27.6641C24.3125 26.5744 23.4256 25.6875 22.3359 25.6875Z" fill="#657EAE"/>
<path d="M29.3828 25.6875H26.8047C26.1885 25.6875 25.6875 26.1885 25.6875 26.8047V29.3828C25.6875 29.999 26.1885 30.5 26.8047 30.5H29.3828C29.999 30.5 30.5 29.999 30.5 29.3828V26.8047C30.5 26.1885 29.999 25.6875 29.3828 25.6875Z" fill="#657EAE"/>
<path d="M29.3828 25.6875H28.3516C28.9677 25.6875 29.4688 26.1885 29.4688 26.8047V29.3828C29.4688 29.999 28.9677 30.5 28.3516 30.5H29.3828C29.999 30.5 30.5 29.999 30.5 29.3828V26.8047C30.5 26.1885 29.999 25.6875 29.3828 25.6875Z" fill="#8EAADF"/>
</svg>
