<svg width="19" height="27" viewBox="0 0 19 27" fill="none" xmlns="http://www.w3.org/2000/svg">
<path id="Registered" fill-rule="evenodd" clip-rule="evenodd" d="M8.20455 0H10.7955C11.9874 0.00153809 12.9531 1.00789 12.9545 2.25V2.7H17.7045C18.42 2.7 19 3.30447 19 4.05V25.65C19 26.3955 18.42 27 17.7045 27H1.29545C0.580045 27 0 26.3955 0 25.65V4.05C0 3.30447 0.580045 2.7 1.29545 2.7H6.04545V2.25C6.04693 1.00789 7.01262 0.00153809 8.20455 0ZM8.20446 0.899994C7.48905 0.899994 6.909 1.50446 6.909 2.24999V2.69999H12.0908V2.24999C12.0908 1.50446 11.5108 0.899994 10.7954 0.899994H8.20446ZM11.2275 4.50001H7.77299V3.60001H11.2275V4.50001ZM10.7955 7.19999H8.20463C7.48922 7.19999 6.90918 6.59553 6.90918 5.84999V5.39999H2.591V24.3H16.4092V5.39999H12.091V5.84999C12.091 6.59553 11.511 7.19999 10.7955 7.19999ZM11.2275 5.84999C11.2275 6.0985 11.0342 6.29999 10.7957 6.29999H8.20481C7.96634 6.29999 7.77299 6.0985 7.77299 5.84999V5.39999H11.2275V5.84999ZM18.1367 25.65V4.05001C18.1367 3.8015 17.9434 3.60001 17.7049 3.60001H12.0913V4.50001H16.8413C17.0797 4.50001 17.2731 4.7015 17.2731 4.95001V24.75C17.2731 24.9985 17.0797 25.2 16.8413 25.2H2.15944C1.92097 25.2 1.72762 24.9985 1.72762 24.75V4.95001C1.72762 4.7015 1.92097 4.50001 2.15944 4.50001H6.90944V3.60001H1.2958C1.05733 3.60001 0.863982 3.8015 0.863982 4.05001V25.65C0.863982 25.8985 1.05733 26.1 1.2958 26.1H17.7049C17.9434 26.1 18.1367 25.8985 18.1367 25.65ZM9.50035 18C7.35391 18 5.61398 16.1868 5.61398 13.95C5.6163 11.7143 7.35496 9.90241 9.50035 9.89999C11.6468 9.89999 13.3867 11.7132 13.3867 13.95C13.3867 16.1868 11.6468 18 9.50035 18ZM12.5222 13.95C12.5222 12.2102 11.169 10.8 9.49946 10.8C7.83081 10.802 6.47864 12.2111 6.47674 13.95C6.47674 15.6898 7.82996 17.1 9.49946 17.1C11.169 17.1 12.5222 15.6898 12.5222 13.95ZM9.02484 15.7478C8.89622 15.7344 8.78004 15.6619 8.70836 15.5498L7.84472 14.1998C7.71231 13.9931 7.76586 13.7136 7.96427 13.5756C8.16268 13.4376 8.43088 13.4934 8.56329 13.7002L9.13448 14.5936L10.9214 12.7318C11.0909 12.5613 11.3602 12.5637 11.5268 12.7373C11.6933 12.9109 11.6957 13.1915 11.532 13.3682L9.37295 15.6182C9.29199 15.7025 9.18213 15.75 9.06764 15.75C9.0533 15.7502 9.03918 15.7493 9.02484 15.7478ZM13.3865 19.8H5.61381C5.37534 19.8 5.18199 20.0015 5.18199 20.25C5.18199 20.4985 5.37534 20.7 5.61381 20.7H13.3865C13.625 20.7 13.8184 20.4985 13.8184 20.25C13.8184 20.0015 13.625 19.8 13.3865 19.8ZM6.90883 21.6H12.0906C12.3291 21.6 12.5225 21.8015 12.5225 22.05C12.5225 22.2985 12.3291 22.5 12.0906 22.5H6.90883C6.67036 22.5 6.47701 22.2985 6.47701 22.05C6.47701 21.8015 6.67036 21.6 6.90883 21.6ZM12.955 6.3H13.8186V7.2H12.955V6.3ZM15.5456 6.3H14.682V7.2H15.5456V6.3ZM3.45498 6.3H4.31861V7.2H3.45498V6.3ZM6.04563 6.3H5.18199V7.2H6.04563V6.3Z" fill="#0C2556"/>
</svg>
