<svg width="26" height="25" viewBox="0 0 26 25" fill="none" xmlns="http://www.w3.org/2000/svg">
<path d="M20.7003 25H4.9445C2.33377 25 0.217773 22.9016 0.217773 20.3125V4.6875C0.217773 2.09844 2.33377 0 4.9445 0H20.7003C23.311 0 25.427 2.09844 25.427 4.6875V20.3125C25.427 22.9016 23.311 25 20.7003 25Z" fill="white" fill-opacity="0.35"/>
<path d="M12.5 14.375C13.5355 14.375 14.375 13.5355 14.375 12.5C14.375 11.4645 13.5355 10.625 12.5 10.625C11.4645 10.625 10.625 11.4645 10.625 12.5C10.625 13.5355 11.4645 14.375 12.5 14.375Z" stroke="white" stroke-width="2" stroke-linecap="round" stroke-linejoin="round"/>
<path d="M17.125 14.375C17.0418 14.5635 17.017 14.7726 17.0537 14.9754C17.0905 15.1781 17.1872 15.3652 17.3312 15.5125L17.3687 15.55C17.485 15.6661 17.5772 15.804 17.6401 15.9557C17.703 16.1074 17.7354 16.2701 17.7354 16.4344C17.7354 16.5986 17.703 16.7613 17.6401 16.913C17.5772 17.0648 17.485 17.2027 17.3687 17.3187C17.2527 17.435 17.1148 17.5272 16.963 17.5901C16.8113 17.653 16.6486 17.6854 16.4844 17.6854C16.3201 17.6854 16.1574 17.653 16.0057 17.5901C15.854 17.5272 15.7161 17.435 15.6 17.3187L15.5625 17.2812C15.4152 17.1372 15.2281 17.0405 15.0254 17.0037C14.8226 16.967 14.6135 16.9918 14.425 17.075C14.2401 17.1542 14.0825 17.2858 13.9714 17.4535C13.8604 17.6211 13.8008 17.8176 13.8 18.0187V18.125C13.8 18.4565 13.6683 18.7745 13.4339 19.0089C13.1995 19.2433 12.8815 19.375 12.55 19.375C12.2185 19.375 11.9005 19.2433 11.6661 19.0089C11.4317 18.7745 11.3 18.4565 11.3 18.125V18.0687C11.2952 17.8619 11.2282 17.6612 11.1078 17.4929C10.9874 17.3246 10.8192 17.1964 10.625 17.125C10.4365 17.0418 10.2274 17.017 10.0246 17.0537C9.82188 17.0905 9.6348 17.1872 9.4875 17.3312L9.45 17.3687C9.33391 17.485 9.19605 17.5772 9.0443 17.6401C8.89255 17.703 8.72989 17.7354 8.56562 17.7354C8.40136 17.7354 8.2387 17.703 8.08695 17.6401C7.9352 17.5772 7.79734 17.485 7.68125 17.3687C7.56503 17.2527 7.47283 17.1148 7.40993 16.963C7.34702 16.8113 7.31464 16.6486 7.31464 16.4844C7.31464 16.3201 7.34702 16.1574 7.40993 16.0057C7.47283 15.854 7.56503 15.7161 7.68125 15.6L7.71875 15.5625C7.86284 15.4152 7.95949 15.2281 7.99625 15.0254C8.03301 14.8226 8.0082 14.6135 7.925 14.425C7.84577 14.2401 7.71422 14.0825 7.54654 13.9714C7.37886 13.8604 7.18237 13.8008 6.98125 13.8H6.875C6.54348 13.8 6.22554 13.6683 5.99112 13.4339C5.7567 13.1995 5.625 12.8815 5.625 12.55C5.625 12.2185 5.7567 11.9005 5.99112 11.6661C6.22554 11.4317 6.54348 11.3 6.875 11.3H6.93125C7.13812 11.2952 7.33875 11.2282 7.50706 11.1078C7.67537 10.9874 7.80357 10.8192 7.875 10.625C7.9582 10.4365 7.98301 10.2274 7.94625 10.0246C7.90949 9.82188 7.81284 9.6348 7.66875 9.4875L7.63125 9.45C7.51503 9.33391 7.42283 9.19605 7.35993 9.0443C7.29702 8.89255 7.26464 8.72989 7.26464 8.56562C7.26464 8.40136 7.29702 8.2387 7.35993 8.08695C7.42283 7.9352 7.51503 7.79734 7.63125 7.68125C7.74734 7.56503 7.8852 7.47283 8.03695 7.40993C8.1887 7.34702 8.35136 7.31464 8.51562 7.31464C8.67989 7.31464 8.84255 7.34702 8.9943 7.40993C9.14605 7.47283 9.28391 7.56503 9.4 7.68125L9.4375 7.71875C9.5848 7.86284 9.77188 7.95949 9.97463 7.99625C10.1774 8.03301 10.3865 8.0082 10.575 7.925H10.625C10.8099 7.84577 10.9675 7.71422 11.0786 7.54654C11.1896 7.37886 11.2492 7.18237 11.25 6.98125V6.875C11.25 6.54348 11.3817 6.22554 11.6161 5.99112C11.8505 5.7567 12.1685 5.625 12.5 5.625C12.8315 5.625 13.1495 5.7567 13.3839 5.99112C13.6183 6.22554 13.75 6.54348 13.75 6.875V6.93125C13.7508 7.13237 13.8104 7.32886 13.9214 7.49654C14.0325 7.66422 14.1901 7.79577 14.375 7.875C14.5635 7.9582 14.7726 7.98301 14.9754 7.94625C15.1781 7.90949 15.3652 7.81284 15.5125 7.66875L15.55 7.63125C15.6661 7.51503 15.804 7.42283 15.9557 7.35993C16.1074 7.29702 16.2701 7.26464 16.4344 7.26464C16.5986 7.26464 16.7613 7.29702 16.913 7.35993C17.0648 7.42283 17.2027 7.51503 17.3187 7.63125C17.435 7.74734 17.5272 7.8852 17.5901 8.03695C17.653 8.1887 17.6854 8.35136 17.6854 8.51562C17.6854 8.67989 17.653 8.84255 17.5901 8.9943C17.5272 9.14605 17.435 9.28391 17.3187 9.4L17.2812 9.4375C17.1372 9.5848 17.0405 9.77188 17.0037 9.97463C16.967 10.1774 16.9918 10.3865 17.075 10.575V10.625C17.1542 10.8099 17.2858 10.9675 17.4535 11.0786C17.6211 11.1896 17.8176 11.2492 18.0187 11.25H18.125C18.4565 11.25 18.7745 11.3817 19.0089 11.6161C19.2433 11.8505 19.375 12.1685 19.375 12.5C19.375 12.8315 19.2433 13.1495 19.0089 13.3839C18.7745 13.6183 18.4565 13.75 18.125 13.75H18.0687C17.8676 13.7508 17.6711 13.8104 17.5035 13.9214C17.3358 14.0325 17.2042 14.1901 17.125 14.375V14.375Z" stroke="white" stroke-linecap="round" stroke-linejoin="round"/>
</svg>
