<svg width="14" height="14" viewBox="0 0 14 14" fill="none" xmlns="http://www.w3.org/2000/svg">
<path d="M13.731 6.31824L10.0666 4.92079L8.69831 0.300364C8.6456 0.122182 8.48542 0 8.30465 0C8.12388 0 7.9637 0.122182 7.91099 0.300364L6.54307 4.92079L2.87826 6.31824C2.71644 6.38018 2.60938 6.53842 2.60938 6.71618C2.60938 6.89351 2.71644 7.05261 2.87826 7.11412L6.54101 8.51115L7.90976 13.2724C7.96164 13.4523 8.12224 13.5758 8.30465 13.5758C8.48666 13.5758 8.64766 13.4523 8.69955 13.272L10.0683 8.51073L13.7315 7.1137C13.8925 7.05261 13.9999 6.89394 13.9999 6.71618C13.9999 6.53885 13.8925 6.38018 13.731 6.31824Z" fill="#FFAC33"/>
<path d="M5.49598 10.9853L4.54313 10.6221L4.17253 9.2221C4.12394 9.03713 3.96129 8.90901 3.77558 8.90901C3.58986 8.90901 3.42721 9.03713 3.37821 9.22167L3.00761 10.6217L2.05518 10.9848C1.89335 11.0463 1.78629 11.2054 1.78629 11.3828C1.78629 11.5601 1.89335 11.7192 2.05518 11.7807L3.00267 12.1426L3.37615 13.6792C3.42227 13.8676 3.58657 13.9999 3.77558 13.9999C3.96458 13.9999 4.12888 13.8676 4.175 13.6788L4.54848 12.1422L5.49598 11.7803C5.65781 11.7192 5.76487 11.5601 5.76487 11.3828C5.76487 11.2054 5.65781 11.0463 5.49598 10.9853ZM3.70969 1.79489L2.73625 1.42367L2.37554 0.420341C2.31583 0.253614 2.16183 0.143311 1.98929 0.143311C1.81717 0.143311 1.66316 0.253614 1.60304 0.420341L1.24274 1.42367L0.26889 1.79489C0.107062 1.85683 0 2.01549 0 2.19283C0 2.37016 0.107062 2.52925 0.26889 2.59077L1.24274 2.96198L1.60304 3.96531C1.66316 4.13204 1.81717 4.24234 1.98929 4.24234C2.16141 4.24234 2.31542 4.13204 2.37554 3.96531L2.73584 2.96198L3.70969 2.59077C3.87152 2.52883 3.97858 2.37016 3.97858 2.19283C3.97858 2.01549 3.87152 1.85683 3.70969 1.79489Z" fill="#FFCC4D"/>
</svg>
