<svg width="26" height="25" viewBox="0 0 26 25" fill="none" xmlns="http://www.w3.org/2000/svg">
<path d="M20.7003 25H4.9445C2.33377 25 0.217773 22.9016 0.217773 20.3125V4.6875C0.217773 2.09844 2.33377 0 4.9445 0H20.7003C23.311 0 25.427 2.09844 25.427 4.6875V20.3125C25.427 22.9016 23.311 25 20.7003 25Z" fill="white" fill-opacity="0.35"/>
<path d="M12.5699 18.5C16.0505 18.5 18.8722 15.7018 18.8722 12.25C18.8722 8.79822 16.0505 6 12.5699 6C9.08921 6 6.26758 8.79822 6.26758 12.25C6.26758 15.7018 9.08921 18.5 12.5699 18.5Z" stroke="white" stroke-linecap="round" stroke-linejoin="round"/>
<path d="M10.7363 10.3749C10.8845 9.95716 11.177 9.60493 11.5619 9.38058C11.9468 9.15622 12.3994 9.0742 12.8395 9.14906C13.2796 9.22392 13.6788 9.45082 13.9663 9.78957C14.2539 10.1283 14.4112 10.5571 14.4106 10.9999C14.4106 12.2499 12.5199 12.8749 12.5199 12.8749" stroke="white" stroke-linecap="round" stroke-linejoin="round"/>
<path d="M12.5703 15.375H12.5766" stroke="white" stroke-width="2" stroke-linecap="round" stroke-linejoin="round"/>
</svg>
