<svg width="80" height="80" viewBox="0 0 80 80" fill="none" xmlns="http://www.w3.org/2000/svg">
<g id="Group">
<path id="Oval" opacity="0.1" d="M40 80C62.0914 80 80 62.0914 80 40C80 17.9086 62.0914 0 40 0C17.9086 0 0 17.9086 0 40C0 62.0914 17.9086 80 40 80Z" fill="#ADC959"/>
<g id="Mask">
<mask id="path-2-inside-1" fill="white">
<path fill-rule="evenodd" clip-rule="evenodd" d="M40 25C31.6818 25 25 31.6818 25 40C25 48.3182 31.6818 55 40 55C48.3182 55 55 48.3182 55 40C55 31.6818 48.3182 25 40 25ZM40 52.2727C33.1818 52.2727 27.7273 46.8182 27.7273 40C27.7273 33.1818 33.1818 27.7273 40 27.7273C46.8182 27.7273 52.2727 33.1818 52.2727 40C52.2727 46.8182 46.8182 52.2727 40 52.2727ZM45.0455 45.0455C45.5909 44.5 45.5909 43.6818 45.0455 43.1364L41.3636 39.4545V31.8182C41.3636 31 40.8182 30.4545 40 30.4545C39.1818 30.4545 38.6364 31 38.6364 31.8182V40C38.6364 40.4091 38.7727 40.6818 39.0455 40.9545L43.1364 45.0455C43.4091 45.3182 43.6818 45.4545 44.0909 45.4545C44.5 45.4545 44.7727 45.3182 45.0455 45.0455Z"/>
</mask>
<path d="M45.0455 43.1364L46.4597 41.7222L45.0455 43.1364ZM41.3636 39.4545H39.3636V40.283L39.9494 40.8688L41.3636 39.4545ZM39.0455 40.9545L37.6312 42.3688L37.6312 42.3688L39.0455 40.9545ZM43.1364 45.0455L44.5506 43.6312L43.1364 45.0455ZM27 40C27 32.7864 32.7864 27 40 27V23C30.5772 23 23 30.5772 23 40H27ZM40 53C32.7864 53 27 47.2136 27 40H23C23 49.4228 30.5772 57 40 57V53ZM53 40C53 47.2136 47.2136 53 40 53V57C49.4228 57 57 49.4228 57 40H53ZM40 27C47.2136 27 53 32.7864 53 40H57C57 30.5772 49.4228 23 40 23V27ZM25.7273 40C25.7273 47.9228 32.0772 54.2727 40 54.2727V50.2727C34.2864 50.2727 29.7273 45.7136 29.7273 40H25.7273ZM40 25.7273C32.0772 25.7273 25.7273 32.0772 25.7273 40H29.7273C29.7273 34.2864 34.2864 29.7273 40 29.7273V25.7273ZM54.2727 40C54.2727 32.0772 47.9228 25.7273 40 25.7273V29.7273C45.7136 29.7273 50.2727 34.2864 50.2727 40H54.2727ZM40 54.2727C47.9228 54.2727 54.2727 47.9228 54.2727 40H50.2727C50.2727 45.7136 45.7136 50.2727 40 50.2727V54.2727ZM43.6312 44.5506C43.5409 44.4602 43.4545 44.2971 43.4545 44.0909C43.4545 43.8847 43.5409 43.7216 43.6312 43.6312L46.4597 46.4597C47.7862 45.1332 47.7862 43.0487 46.4597 41.7222L43.6312 44.5506ZM39.9494 40.8688L43.6312 44.5506L46.4597 41.7222L42.7778 38.0403L39.9494 40.8688ZM39.3636 31.8182V39.4545H43.3636V31.8182H39.3636ZM40 32.4545C39.9546 32.4545 39.7613 32.4307 39.5744 32.2438C39.3875 32.0568 39.3636 31.8636 39.3636 31.8182H43.3636C43.3636 30.9546 43.067 30.0795 42.4029 29.4153C41.7387 28.7511 40.8636 28.4545 40 28.4545V32.4545ZM40.6364 31.8182C40.6364 31.8636 40.6125 32.0568 40.4256 32.2438C40.2387 32.4307 40.0454 32.4545 40 32.4545V28.4545C39.1364 28.4545 38.2613 28.7511 37.5972 29.4153C36.933 30.0795 36.6364 30.9546 36.6364 31.8182H40.6364ZM40.6364 40V31.8182H36.6364V40H40.6364ZM40.4597 39.5403C40.4414 39.522 40.5072 39.5832 40.5663 39.7161C40.6292 39.8577 40.6364 39.9712 40.6364 40H36.6364C36.6364 40.4379 36.7117 40.8923 36.911 41.3407C37.1065 41.7804 37.3768 42.1143 37.6312 42.3688L40.4597 39.5403ZM44.5506 43.6312L40.4597 39.5403L37.6312 42.3688L41.7222 46.4597L44.5506 43.6312ZM44.0909 43.4545C44.1197 43.4545 44.2332 43.4617 44.3748 43.5247C44.5077 43.5837 44.5689 43.6495 44.5506 43.6312L41.7222 46.4597C41.9766 46.7141 42.3105 46.9845 42.7502 47.1799C43.1986 47.3792 43.653 47.4545 44.0909 47.4545V43.4545ZM43.6312 43.6312C43.6129 43.6495 43.6741 43.5837 43.807 43.5247C43.9486 43.4617 44.0621 43.4545 44.0909 43.4545V47.4545C44.5288 47.4545 44.9832 47.3792 45.4316 47.1799C45.8713 46.9845 46.2052 46.7141 46.4597 46.4597L43.6312 43.6312Z" fill="#ADC959" mask="url(#path-2-inside-1)"/>
</g>
</g>
</svg>
