<svg width="40" height="40" viewBox="0 0 40 40" fill="none" xmlns="http://www.w3.org/2000/svg">
<g id="Profile step">
<path id="Oval" opacity="0.0998419" d="M20 40C31.0457 40 40 31.0457 40 20C40 8.9543 31.0457 0 20 0C8.9543 0 0 8.9543 0 20C0 31.0457 8.9543 40 20 40Z" fill="#657EAE"/>
<path id="Combined Shape" fill-rule="evenodd" clip-rule="evenodd" d="M29.3644 12.069C29.3644 12.9445 28.0442 14.7434 27.2896 15.6686C26.5347 14.7434 25.2149 12.9438 25.2149 12.069C25.2149 10.9264 26.1438 10 27.2896 10C28.4354 10 29.3644 10.9264 29.3644 12.069ZM28.327 11.7241C28.327 11.1528 27.8625 10.6897 27.2896 10.6897C26.7167 10.6897 26.2522 11.1528 26.2522 11.7241C26.2522 12.2954 26.7167 12.7586 27.2896 12.7586C27.8625 12.7586 28.327 12.2954 28.327 11.7241ZM16.2243 22.069C16.2243 23.4065 14.1802 26.3323 13.1121 27.7169C12.044 26.3328 10 23.4075 10 22.069C10 20.3549 11.3933 18.9655 13.1121 18.9655C14.831 18.9655 16.2243 20.3549 16.2243 22.069ZM14.4953 21.7241C14.4953 20.9624 13.876 20.3448 13.1121 20.3448C12.3483 20.3448 11.729 20.9624 11.729 21.7241C11.729 22.4859 12.3483 23.1034 13.1121 23.1034C13.876 23.1034 14.4953 22.4859 14.4953 21.7241ZM27.2896 17.931H26.9438C26.7529 17.931 26.598 17.7766 26.598 17.5862C26.598 17.3958 26.7529 17.2414 26.9438 17.2414H27.2896C27.4806 17.2414 27.6354 17.3958 27.6354 17.5862C27.6354 17.7766 27.4806 17.931 27.2896 17.931ZM22.4485 20H23.1477C23.3387 20 23.4935 19.8456 23.4935 19.6552C23.4935 19.4647 23.3387 19.3103 23.1477 19.3103H22.443C22.3516 19.3105 22.264 19.347 22.1997 19.4117C22.1353 19.4764 22.0994 19.5641 22.1 19.6552C22.1012 19.8461 22.2571 20.0002 22.4485 20ZM26.671 20C26.48 20 26.3252 19.8456 26.3252 19.6552C26.3252 19.4647 26.48 19.3103 26.671 19.3103H27.3754C27.5664 19.3103 27.7212 19.4647 27.7212 19.6552C27.7212 19.8456 27.5664 20 27.3754 20H26.671ZM24.8301 17.931H25.5347C25.7256 17.931 25.8804 17.7766 25.8804 17.5862C25.8804 17.3958 25.7256 17.2414 25.5347 17.2414H24.8301C24.6389 17.2414 24.4843 17.3958 24.4843 17.5862C24.4843 17.7766 24.6389 17.931 24.8301 17.931ZM14.9022 29.3103H15.607C15.7979 29.3103 15.9528 29.4647 15.9528 29.6552C15.9528 29.8456 15.7979 30 15.607 30H14.9022C14.7113 30 14.5564 29.8456 14.5564 29.6552C14.5564 29.4647 14.7113 29.3103 14.9022 29.3103ZM21.4329 19.1794C21.4571 19.1794 21.4811 19.1768 21.5045 19.1718C21.6913 19.1325 21.8108 18.95 21.7718 18.7638C21.762 18.7167 21.7571 18.6688 21.7569 18.6207C21.7568 18.5116 21.7826 18.4042 21.8322 18.3068C21.9189 18.1371 21.8512 17.9295 21.6808 17.8431C21.5106 17.7568 21.3024 17.8243 21.2158 17.9942C21.0724 18.2749 21.0299 18.5963 21.0951 18.9046C21.1283 19.0642 21.2693 19.179 21.4329 19.1794ZM25.2626 20H24.5579C24.3669 20 24.2121 19.8456 24.2121 19.6552C24.2121 19.4647 24.3669 19.3103 24.5579 19.3103H25.2626C25.4536 19.3103 25.6084 19.4647 25.6084 19.6552C25.6084 19.8456 25.4536 20 25.2626 20ZM22.7161 17.931H23.4209C23.6119 17.931 23.7667 17.7766 23.7667 17.5862C23.7667 17.3958 23.6119 17.2414 23.4209 17.2414H22.7161C22.5252 17.2414 22.3704 17.3958 22.3704 17.5862C22.3704 17.7766 22.5252 17.931 22.7161 17.931ZM19.383 23.9335C19.3548 23.9335 19.3264 23.9302 19.2991 23.9231C19.2099 23.901 19.1333 23.8445 19.0862 23.7658C19.0389 23.6874 19.0249 23.5932 19.0473 23.5045C19.1174 23.2255 19.2501 22.9662 19.4353 22.7458C19.5137 22.6482 19.6391 22.6005 19.7627 22.6212C19.8865 22.6421 19.9893 22.7281 20.0312 22.8462C20.0731 22.964 20.0477 23.0954 19.9647 23.1893C19.8471 23.3297 19.7629 23.4947 19.7182 23.672C19.6798 23.8254 19.5417 23.9332 19.383 23.9335ZM26.1305 29.2959C26.0562 29.3056 25.9814 29.3105 25.9065 29.3103H25.4712C25.28 29.3103 25.1254 29.4647 25.1254 29.6552C25.1254 29.8456 25.28 30 25.4712 30H25.9065C26.0105 30 26.1145 29.9933 26.2176 29.98C26.4071 29.9555 26.5408 29.7826 26.5165 29.5937C26.492 29.4048 26.3186 29.2715 26.1292 29.2959H26.1305ZM25.9065 25.1724C26.1455 25.1719 26.3834 25.2068 26.6122 25.2758V25.277C26.7763 25.3265 26.8792 25.4884 26.854 25.6577C26.8287 25.8267 26.683 25.9518 26.5116 25.9516C26.4775 25.9516 26.4435 25.9466 26.411 25.9365C26.2473 25.8872 26.0773 25.8621 25.9065 25.8621H25.8158C25.6248 25.8621 25.47 25.7077 25.47 25.5172C25.47 25.3268 25.6248 25.1724 25.8158 25.1724H25.9065ZM25.8747 22.7586C26.0657 22.7586 26.2205 22.6042 26.2205 22.4138C26.2205 22.2234 26.0657 22.069 25.8747 22.069H25.1703C24.9793 22.069 24.8245 22.2234 24.8245 22.4138C24.8245 22.6042 24.9793 22.7586 25.1703 22.7586H25.8747ZM27.484 28.2927C27.5625 28.1193 27.7671 28.0422 27.941 28.1203C28.1151 28.1984 28.1928 28.4023 28.1148 28.5759C28.002 28.8256 27.847 29.0544 27.6569 29.2521C27.5723 29.3444 27.4441 29.3838 27.322 29.355C27.2001 29.3263 27.1032 29.2339 27.0689 29.1135C27.0347 28.9933 27.0684 28.864 27.1572 28.7756C27.2928 28.6343 27.4034 28.471 27.484 28.2927ZM29.752 21.0951C29.6641 21.0692 29.5694 21.0791 29.4886 21.1229C29.4081 21.1667 29.3482 21.2406 29.3222 21.3283C29.2713 21.4973 29.1785 21.6509 29.0522 21.7745C28.9156 21.9078 28.9132 22.1262 29.0469 22.2624C29.1807 22.3986 29.3997 22.4008 29.5363 22.2676C29.747 22.0617 29.9016 21.8058 29.9857 21.5238C30.0119 21.4361 30.0018 21.3416 29.958 21.2611C29.9141 21.1808 29.84 21.121 29.752 21.0951ZM29.6735 20.2544C29.6178 20.3787 29.494 20.4588 29.3575 20.4586C29.2592 20.4586 29.1655 20.4171 29.0998 20.3442C28.9816 20.2125 28.8317 20.1133 28.6642 20.0559C28.4835 19.9939 28.3873 19.7978 28.4494 19.6176C28.5115 19.4375 28.7082 19.3415 28.8889 19.4035C29.1678 19.4994 29.4177 19.6646 29.6151 19.8835C29.7063 19.9848 29.7291 20.1302 29.6735 20.2544ZM24.4068 25.1724H23.7024C23.5114 25.1724 23.3566 25.3268 23.3566 25.5172C23.3566 25.7077 23.5114 25.8621 23.7024 25.8621H24.4068C24.5977 25.8621 24.7526 25.7077 24.7526 25.5172C24.7526 25.3268 24.5977 25.1724 24.4068 25.1724ZM27.2837 22.069H27.9885C28.1794 22.069 28.3343 22.2234 28.3343 22.4138C28.3343 22.6042 28.1794 22.7586 27.9885 22.7586H27.2837C27.0927 22.7586 26.9379 22.6042 26.9379 22.4138C26.9379 22.2234 27.0927 22.069 27.2837 22.069ZM17.7206 29.3103H17.0161C16.8252 29.3103 16.6703 29.4647 16.6703 29.6552C16.6703 29.8456 16.8252 30 17.0161 30H17.7206C17.9115 30 18.0664 29.8456 18.0664 29.6552C18.0664 29.4647 17.9115 29.3103 17.7206 29.3103ZM27.4282 26.1407C27.5863 26.0331 27.8017 26.0735 27.9096 26.231C28.065 26.4586 28.1796 26.7112 28.2488 26.9775C28.2851 27.0986 28.2522 27.2298 28.163 27.3193C28.0737 27.4091 27.9425 27.4429 27.821 27.4076C27.6992 27.3722 27.6067 27.2734 27.5797 27.15C27.5301 26.961 27.4482 26.7821 27.3377 26.6208C27.2299 26.4632 27.2704 26.2483 27.4282 26.1407ZM20.3572 25.0487C20.1929 24.967 20.0493 24.8498 19.9363 24.7055C19.8191 24.555 19.6018 24.5279 19.451 24.6447C19.3001 24.7614 19.2729 24.9781 19.3899 25.1286C19.567 25.3553 19.7929 25.5393 20.0511 25.6669C20.2215 25.7462 20.4243 25.6752 20.5075 25.507C20.5907 25.3389 20.5239 25.1352 20.3572 25.0487ZM19.1289 29.3103H19.8343C20.0253 29.3103 20.1801 29.4647 20.1801 29.6552C20.1801 29.8456 20.0253 30 19.8343 30H19.1289C18.9379 30 18.7831 29.8456 18.7831 29.6552C18.7831 29.4647 18.9379 29.3103 19.1289 29.3103ZM24.062 29.3103H23.3576C23.1666 29.3103 23.0118 29.4647 23.0118 29.6552C23.0118 29.8456 23.1666 30 23.3576 30H24.062C24.253 30 24.4078 29.8456 24.4078 29.6552C24.4078 29.4647 24.253 29.3103 24.062 29.3103ZM21.9932 22.4138C21.9932 22.6042 21.8383 22.7586 21.6474 22.7586H20.9429C20.752 22.7586 20.5972 22.6042 20.5972 22.4138C20.5972 22.2234 20.752 22.069 20.9429 22.069H21.6474C21.8383 22.069 21.9932 22.2234 21.9932 22.4138ZM23.7625 22.7586C23.9534 22.7586 24.1083 22.6042 24.1083 22.4138C24.1083 22.2234 23.9534 22.069 23.7625 22.069H23.0564C22.8654 22.069 22.7106 22.2234 22.7106 22.4138C22.7106 22.6042 22.8654 22.7586 23.0564 22.7586H23.7625ZM21.5886 25.1724H22.2932C22.4843 25.1724 22.639 25.3268 22.639 25.5172C22.639 25.7077 22.4843 25.8621 22.2932 25.8621H21.5886C21.3976 25.8621 21.2428 25.7077 21.2428 25.5172C21.2428 25.3268 21.3976 25.1724 21.5886 25.1724ZM21.9486 29.3103H21.2438C21.0529 29.3103 20.898 29.4647 20.898 29.6552C20.898 29.8456 21.0529 30 21.2438 30H21.9486C22.1395 30 22.2944 29.8456 22.2944 29.6552C22.2944 29.4647 22.1395 29.3103 21.9486 29.3103ZM13.1121 29.3103H13.4579C13.6489 29.3103 13.8037 29.4647 13.8037 29.6552C13.8037 29.8456 13.6489 30 13.4579 30H13.1121C12.9212 30 12.7663 29.8456 12.7663 29.6552C12.7663 29.4647 12.9212 29.3103 13.1121 29.3103Z" fill="#657EAE"/>
</g>
</svg>
