<svg width="22" height="22" viewBox="0 0 22 22" fill="none" xmlns="http://www.w3.org/2000/svg">
<path d="M19.9517 2.73438H15.5052V2.05078C15.5052 0.919989 14.4172 0 13.0799 0H9.84608C8.50875 0 7.42072 0.919989 7.42072 2.05078V2.73438H2.97425C1.8598 2.73438 0.953125 3.50103 0.953125 4.44336V6.83594C0.953125 7.21345 1.31511 7.51953 1.76157 7.51953H2.20339L2.90184 19.9218C2.96354 21.017 4.02766 21.875 5.32441 21.875H17.6015C18.8983 21.875 19.9625 21.017 20.0241 19.9218L20.7226 7.51953H21.1644C21.6108 7.51953 21.9728 7.21345 21.9728 6.83594V4.44336C21.9728 3.50103 21.0661 2.73438 19.9517 2.73438ZM9.03762 2.05078C9.03762 1.67386 9.40032 1.36719 9.84608 1.36719H13.0799C13.5256 1.36719 13.8883 1.67386 13.8883 2.05078V2.73438H9.03762V2.05078ZM2.57002 4.44336C2.57002 4.2549 2.75137 4.10156 2.97425 4.10156H19.9517C20.1746 4.10156 20.3559 4.2549 20.3559 4.44336V6.15234C20.1068 6.15234 3.60247 6.15234 2.57002 6.15234V4.44336ZM18.409 19.8567C18.3885 20.2218 18.0338 20.5078 17.6015 20.5078H5.32441C4.89215 20.5078 4.53744 20.2218 4.51692 19.8567L3.82211 7.51953H19.1038L18.409 19.8567Z" fill="#ffffff" fill-opacity="0.86"/>
<path d="M11.4632 19.1406C11.9097 19.1406 12.2717 18.8345 12.2717 18.457V9.57031C12.2717 9.1928 11.9097 8.88672 11.4632 8.88672C11.0168 8.88672 10.6548 9.1928 10.6548 9.57031V18.457C10.6548 18.8345 11.0167 19.1406 11.4632 19.1406Z" fill="#ffffff" fill-opacity="0.86"/>
<path d="M15.5052 19.1406C15.9517 19.1406 16.3137 18.8345 16.3137 18.457V9.57031C16.3137 9.1928 15.9517 8.88672 15.5052 8.88672C15.0588 8.88672 14.6968 9.1928 14.6968 9.57031V18.457C14.6968 18.8345 15.0587 19.1406 15.5052 19.1406Z" fill="#ffffff" fill-opacity="0.86"/>
<path d="M7.42124 19.1406C7.86771 19.1406 8.22969 18.8345 8.22969 18.457V9.57031C8.22969 9.1928 7.86771 8.88672 7.42124 8.88672C6.97478 8.88672 6.61279 9.1928 6.61279 9.57031V18.457C6.61279 18.8345 6.97473 19.1406 7.42124 19.1406Z" fill="#ffffff" fill-opacity="0.86"/>
</svg>
