<svg width="35" height="35" viewBox="0 0 35 35" fill="none" xmlns="http://www.w3.org/2000/svg">
<path d="M17.5 0C7.83603 0 0 7.83484 0 17.5C0 27.1652 7.83526 35 17.5 35C27.1655 35 35 27.1652 35 17.5C35 7.83484 27.1655 0 17.5 0ZM17.5 5.2327C20.6978 5.2327 23.289 7.82484 23.289 11.0212C23.289 14.2183 20.6978 16.8097 17.5 16.8097C14.3038 16.8097 11.7125 14.2183 11.7125 11.0212C11.7125 7.82484 14.3038 5.2327 17.5 5.2327ZM17.4962 30.4246C14.3069 30.4246 11.3858 29.263 9.13281 27.3404C8.58396 26.8723 8.26726 26.1858 8.26726 25.4655C8.26726 22.2238 10.8908 19.6294 14.1331 19.6294H20.8684C24.1115 19.6294 26.7251 22.2238 26.7251 25.4655C26.7251 26.1866 26.4099 26.8715 25.8603 27.3397C23.608 29.263 20.6862 30.4246 17.4962 30.4246Z" fill="#D0D7E6"/>
</svg>
