<svg width="50" height="50" viewBox="0 0 50 50" fill="none" xmlns="http://www.w3.org/2000/svg">
<path opacity="0.103585" d="M25 50C38.8071 50 50 38.8071 50 25C50 11.1929 38.8071 0 25 0C11.1929 0 0 11.1929 0 25C0 38.8071 11.1929 50 25 50Z" fill="#0C2556"/>
<path d="M29.5352 14H19.4648C18.1035 14 17 15.2085 17 16.6994V33.3006C17 34.7914 18.1035 36 19.4648 36H29.5352C30.8965 36 32 34.7914 32 33.3006V16.6994C32 15.2085 30.8965 14 29.5352 14V14Z" fill="#4A80AA"/>
<path d="M20.8624 36.0009H19.4647C18.1034 36.0009 17 34.7925 17 33.3016V16.7003C17 15.2094 18.1034 14.001 19.4647 14.001H20.8624C19.5015 14.001 18.3977 15.2094 18.3977 16.7003V33.3016C18.3977 34.7925 19.5015 36.0009 20.8624 36.0009Z" fill="#407093"/>
<path d="M30.3831 17.311V32.6907C30.3831 33.541 29.7538 34.2302 28.9774 34.2302H20.0222C19.2462 34.2302 18.6165 33.541 18.6165 32.6907V17.311C18.6165 16.4607 19.2462 15.7715 20.0222 15.7715H21.3952V15.8441C21.3952 16.7232 22.046 17.4358 22.8487 17.4358H26.1513C26.954 17.4358 27.6047 16.7232 27.6047 15.8441V15.7715H28.9774C29.7538 15.7715 30.3831 16.4607 30.3831 17.311Z" fill="#8EAADF"/>
<path d="M21.3665 34.2302H20.0222C19.2462 34.2302 18.6165 33.541 18.6165 32.6907V17.311C18.6165 16.4607 19.2462 15.7715 20.0222 15.7715H21.3665C20.5905 15.7715 19.9608 16.4607 19.9608 17.311V32.6907C19.9608 33.541 20.5905 34.2302 21.3665 34.2302Z" fill="#698ED5"/>
<path d="M26.1129 16.4354H22.8871C22.7197 16.4354 22.584 16.2868 22.584 16.1035C22.584 15.9201 22.7197 15.7715 22.8871 15.7715H26.1129C26.2804 15.7715 26.416 15.9201 26.416 16.1035C26.416 16.2868 26.2804 16.4354 26.1129 16.4354Z" fill="#407093"/>
<path d="M22.5832 27.6774C22.5056 27.6774 22.428 27.6449 22.3689 27.5801L20.2271 25.2345C20.1087 25.1049 20.1087 24.8947 20.2271 24.7651L22.3689 22.4195C22.4872 22.2899 22.6792 22.2899 22.7975 22.4195C22.9159 22.5491 22.9159 22.7593 22.7975 22.889L20.8701 24.9998L22.7975 27.1106C22.9159 27.2403 22.9159 27.4505 22.7975 27.5801C22.7383 27.645 22.6608 27.6774 22.5832 27.6774Z" fill="#F9F6F9"/>
<path d="M26.4168 27.6774C26.3392 27.6774 26.2616 27.6449 26.2024 27.5801C26.0841 27.4505 26.0841 27.2403 26.2024 27.1106L28.1298 24.9998L26.2024 22.889C26.0841 22.7593 26.0841 22.5491 26.2024 22.4195C26.3208 22.2899 26.5127 22.2899 26.6312 22.4195L28.7729 24.7651C28.8913 24.8947 28.8913 25.1049 28.7729 25.2345L26.6312 27.5801C26.572 27.645 26.4944 27.6774 26.4168 27.6774Z" fill="#F9F6F9"/>
<path d="M23.4855 29.2351C23.4589 29.2351 23.4318 29.2313 23.4049 29.2232C23.2435 29.1745 23.1487 28.9918 23.1931 28.815L25.1534 21.0096C25.1978 20.8329 25.3646 20.729 25.5261 20.7776C25.6875 20.8262 25.7824 21.0089 25.738 21.1858L23.7776 28.9911C23.7406 29.1385 23.6186 29.2351 23.4855 29.2351Z" fill="#F9F6F9"/>
</svg>
